<svg width="233" height="70" viewBox="0 0 233 70" version="1.1" xmlns="http://www.w3.org/2000/svg" xmlns:xlink="http://www.w3.org/1999/xlink">
<title>Group 152</title>
<desc>Created using Figma</desc>
<g id="Canvas" transform="translate(-8731 -5300)">
<g id="Group 152">
<g id="Group 2.10">
<g id="Group 2">
<g id="Polygon 3.2 (Stroke)">
<use xlink:href="#path0_fill" transform="translate(8731 5300)" fill="#11F088"/>
</g>
<g id="Group">
<g id="Polygon 3 (Stroke)">
<use xlink:href="#path1_fill" transform="translate(8746.71 5312.32)" fill="#11F088"/>
</g>
<g id="Union">
<use xlink:href="#path2_fill" transform="translate(8745.39 5323.39)" fill="#11F088"/>
</g>
</g>
</g>
</g>
<g id="Dunkelwald">
<use xlink:href="#path3_fill" transform="translate(8811 5322)" fill="#FFFFFF"/>
<use xlink:href="#path4_fill" transform="translate(8811 5322)" fill="#FFFFFF"/>
<use xlink:href="#path5_fill" transform="translate(8811 5322)" fill="#FFFFFF"/>
<use xlink:href="#path6_fill" transform="translate(8811 5322)" fill="#FFFFFF"/>
<use xlink:href="#path7_fill" transform="translate(8811 5322)" fill="#FFFFFF"/>
<use xlink:href="#path8_fill" transform="translate(8811 5322)" fill="#FFFFFF"/>
<use xlink:href="#path9_fill" transform="translate(8811 5322)" fill="#FFFFFF"/>
<use xlink:href="#path10_fill" transform="translate(8811 5322)" fill="#FFFFFF"/>
<use xlink:href="#path11_fill" transform="translate(8811 5322)" fill="#FFFFFF"/>
<use xlink:href="#path12_fill" transform="translate(8811 5322)" fill="#FFFFFF"/>
</g>
<g id="Security">
<use xlink:href="#path13_fill" transform="translate(8835.8 5345.78)" fill="#FFFFFF"/>
<use xlink:href="#path14_fill" transform="translate(8835.8 5345.78)" fill="#FFFFFF"/>
<use xlink:href="#path15_fill" transform="translate(8835.8 5345.78)" fill="#FFFFFF"/>
<use xlink:href="#path16_fill" transform="translate(8835.8 5345.78)" fill="#FFFFFF"/>
<use xlink:href="#path17_fill" transform="translate(8835.8 5345.78)" fill="#FFFFFF"/>
<use xlink:href="#path18_fill" transform="translate(8835.8 5345.78)" fill="#FFFFFF"/>
<use xlink:href="#path19_fill" transform="translate(8835.8 5345.78)" fill="#FFFFFF"/>
<use xlink:href="#path20_fill" transform="translate(8835.8 5345.78)" fill="#FFFFFF"/>
</g>
<g id="Line 2">
<use xlink:href="#path21_stroke" transform="matrix(6.12323e-17 1 -1 6.12323e-17 8963 5313)" fill="#FFFFFF"/>
</g>
</g>
</g>
<defs>
<path id="path0_fill" fill-rule="evenodd" d="M 29.7411 4.27918L 3.63621 19.6396L 3.63621 50.3604L 29.7411 65.7208L 55.8459 50.3604L 55.8459 19.6396L 29.7411 4.27918ZM 59.4821 17.5L 29.7411 0L 0 17.5L 0 52.5L 29.7411 70L 59.4821 52.5L 59.4821 17.5Z"/>
<path id="path1_fill" fill-rule="evenodd" d="M 14.6906 0L 29.3812 25.8228L 26.7241 27.394L 14.6906 6.24187L 2.65715 27.394L 0 25.8228L 14.6906 0Z"/>
<path id="path2_fill" fill-rule="evenodd" d="M 30.7058 26.1749L 16.0108 0L 0 28.5186L 19.0128 28.5186L 22.7057 28.5184L 17.9569 19.7497L 14.6905 25.3869L 5.29748 25.3869L 16.0108 6.30423L 28.0399 27.7306L 30.7058 26.1749Z"/>
<path id="path3_fill" d="M 0 15.2271L 0 0.21753C 2.05697 0.0870119 3.99805 0.0217527 5.82324 0.0217527C 8.21338 0.0217527 9.87199 0.572829 10.7991 1.67498C 11.7406 2.77713 12.2114 4.79291 12.2114 7.72232C 12.2114 10.6517 11.7406 12.6675 10.7991 13.7697C 9.87199 14.8718 8.21338 15.4229 5.82324 15.4229C 3.99805 15.4229 2.05697 15.3576 0 15.2271ZM 3.30274 2.63211L 3.30274 12.7908C 3.54899 12.7908 3.94735 12.798 4.4978 12.8125C 5.06275 12.8125 5.50456 12.8125 5.82324 12.8125C 6.93864 12.8125 7.69914 12.4572 8.10474 11.7466C 8.52482 11.036 8.73487 9.69459 8.73487 7.72232C 8.73487 5.75005 8.52482 4.40861 8.10474 3.69801C 7.69914 2.97291 6.93864 2.61036 5.82324 2.61036L 3.30274 2.63211Z"/>
<path id="path4_fill" d="M 24.742 4.50287L 24.742 15.2271L 22.1998 15.2271L 21.9607 13.7479C 20.4832 14.9226 19.0057 15.5099 17.5281 15.5099C 15.5146 15.5099 14.5079 14.5165 14.5079 12.5297L 14.5079 4.50287L 17.7237 4.50287L 17.7237 11.5508C 17.7092 12.0149 17.7889 12.3412 17.9627 12.5297C 18.1365 12.7183 18.4407 12.8125 18.8753 12.8125C 19.4982 12.8125 20.389 12.5152 21.5479 11.9207L 21.5479 4.50287L 24.742 4.50287Z"/>
<path id="path5_fill" d="M 29.9969 4.50287L 30.2359 6.09084C 31.7859 4.82917 33.3141 4.19833 34.8206 4.19833C 35.7912 4.19833 36.5299 4.45212 37.0369 4.95969C 37.5584 5.46726 37.8192 6.20686 37.8192 7.17849L 37.8192 15.2271L 34.6251 15.2271L 34.6251 8.17913C 34.6251 7.70057 34.5454 7.37427 34.3861 7.20025C 34.2412 7.01172 33.9732 6.91746 33.5821 6.91746C 32.9013 6.91746 31.909 7.24375 30.6053 7.89634L 30.6053 15.2271L 27.3895 15.2271L 27.3895 4.50287L 29.9969 4.50287Z"/>
<path id="path6_fill" d="M 44.4819 10.2457L 43.4606 10.2457C 43.562 10.8983 43.6127 11.4348 43.6127 11.8554L 43.6127 15.2271L 40.3969 15.2271L 40.3969 0L 43.6127 0L 43.6127 6.28662C 43.6127 6.99722 43.562 7.64981 43.4606 8.24439L 44.4601 8.24439L 47.111 4.50287L 50.7179 4.50287L 47.9367 8.22264C 47.7049 8.61419 47.3717 8.95499 46.9372 9.24503L 46.9372 9.28854C 47.2993 9.53507 47.6325 9.91937 47.9367 10.4414L 51.0873 15.2271L 47.4804 15.2271L 44.4819 10.2457Z"/>
<path id="path7_fill" d="M 58.9115 10.9418L 55.0438 10.9418C 55.1452 11.7249 55.377 12.2542 55.7391 12.5297C 56.1157 12.7908 56.7314 12.9213 57.586 12.9213C 58.7304 12.9213 60.0631 12.8415 61.5841 12.682L 61.8883 14.6833C 60.7729 15.2199 59.2157 15.4881 57.2166 15.4881C 55.2031 15.4881 53.769 15.0531 52.9144 14.183C 52.0597 13.3128 51.6324 11.8771 51.6324 9.87587C 51.6324 7.77308 52.0452 6.30112 52.8709 5.46C 53.7111 4.61889 55.1162 4.19833 57.0863 4.19833C 58.868 4.19833 60.1572 4.51012 60.9539 5.13371C 61.7507 5.74279 62.1563 6.67817 62.1707 7.93985C 62.1707 8.94049 61.91 9.69459 61.3885 10.2022C 60.8815 10.6952 60.0558 10.9418 58.9115 10.9418ZM 54.9786 9.00575L 58.0206 9.00575C 58.4117 9.00575 58.6725 8.91148 58.8028 8.72296C 58.9477 8.53443 59.0201 8.25889 59.0201 7.89634C 59.0201 7.38877 58.8897 7.04072 58.629 6.8522C 58.3683 6.64917 57.8902 6.54766 57.1949 6.54766C 56.3692 6.54766 55.8043 6.71443 55.5001 7.04798C 55.1959 7.36702 55.0221 8.01961 54.9786 9.00575Z"/>
<path id="path8_fill" d="M 67.4632 0L 67.4632 11.7249C 67.4632 12.45 67.8688 12.8125 68.68 12.8125L 69.5491 12.8125L 69.9185 15.0531C 69.368 15.3431 68.5134 15.4881 67.3545 15.4881C 66.3985 15.4881 65.6452 15.2344 65.0948 14.7268C 64.5443 14.2047 64.2691 13.4724 64.2691 12.5297L 64.2691 0L 67.4632 0Z"/>
<path id="path9_fill" d="M 87.7472 4.50287L 85.1181 14.3787C 84.9732 14.9443 84.6039 15.2271 84.0099 15.2271L 81.4894 15.2271C 81.1997 15.2271 80.9462 15.1401 80.7289 14.9661C 80.5117 14.7775 80.3813 14.5383 80.3378 14.2482L 79.2514 8.17913C 79.2369 8.04861 79.2007 7.77308 79.1428 7.35252C 79.0993 6.93196 79.0558 6.60566 79.0124 6.37363L 78.7516 6.37363L 78.4909 8.17913L 77.4262 14.2482C 77.3828 14.5383 77.2524 14.7775 77.0351 14.9661C 76.8178 15.1401 76.5571 15.2271 76.2529 15.2271L 73.7758 15.2271C 73.1819 15.2271 72.8125 14.9443 72.6677 14.3787L 70.0385 4.50287L 73.2761 4.50287L 74.7319 11.4638C 74.8767 12.2469 74.9636 12.8343 74.9926 13.2258L 75.2751 13.2258C 75.3041 13.0228 75.3475 12.7255 75.4055 12.334C 75.4779 11.9424 75.5286 11.6524 75.5576 11.4638L 76.644 5.46C 76.7454 4.82192 77.1148 4.50287 77.7521 4.50287L 80.0119 4.50287C 80.3016 4.50287 80.5479 4.58989 80.7507 4.76391C 80.968 4.93793 81.0983 5.17722 81.1418 5.48176L 82.2065 11.4638C 82.2355 11.6669 82.2861 11.9642 82.3586 12.3557C 82.431 12.7473 82.4817 13.0373 82.5107 13.2258L 82.7714 13.2258L 83.0322 11.4638L 84.5097 4.50287L 87.7472 4.50287Z"/>
<path id="path10_fill" d="M 89.5898 6.8957L 89.2856 4.7204C 91.2122 4.37235 93.0736 4.19833 94.8698 4.19833C 96.3184 4.19833 97.3831 4.49562 98.0639 5.0902C 98.7447 5.67028 99.0851 6.68543 99.0851 8.13563L 99.0851 15.2271L 96.5429 15.2271L 96.217 13.5956C 95.145 14.8573 93.8268 15.4881 92.2624 15.4881C 91.2339 15.4881 90.3937 15.2199 89.7419 14.6833C 89.09 14.1322 88.7641 13.3709 88.7641 12.3992L 88.7641 11.3116C 88.7641 10.4559 89.0538 9.78885 89.6332 9.31029C 90.2126 8.83172 91.0166 8.59244 92.0451 8.59244L 95.8693 8.59244L 95.8693 8.11387C 95.8548 7.5628 95.7244 7.193 95.4782 7.00447C 95.2464 6.81594 94.7901 6.72168 94.1093 6.72168C 92.9215 6.72168 91.415 6.77969 89.5898 6.8957ZM 91.9364 11.5508L 91.9364 11.9642C 91.9364 12.7038 92.3565 13.0736 93.1967 13.0736C 94.0658 13.0736 94.9567 12.7255 95.8693 12.0294L 95.8693 10.5285L 92.9794 10.5285C 92.2841 10.543 91.9364 10.8838 91.9364 11.5508Z"/>
<path id="path11_fill" d="M 104.852 0L 104.852 11.7249C 104.852 12.45 105.257 12.8125 106.068 12.8125L 106.937 12.8125L 107.307 15.0531C 106.756 15.3431 105.902 15.4881 104.743 15.4881C 103.787 15.4881 103.034 15.2344 102.483 14.7268C 101.933 14.2047 101.657 13.4724 101.657 12.5297L 101.657 0L 104.852 0Z"/>
<path id="path12_fill" d="M 119 0L 119 15.2271L 116.458 15.2271L 116.197 13.6609C 115.169 14.8791 113.807 15.4881 112.112 15.4881C 110.779 15.4881 109.809 15.0096 109.2 14.0524C 108.607 13.0808 108.31 11.6524 108.31 9.7671C 108.31 7.70782 108.643 6.26487 109.309 5.43825C 109.975 4.61164 111.011 4.19833 112.416 4.19833C 113.792 4.19833 114.951 4.51737 115.893 5.15546C 115.82 4.35785 115.784 3.611 115.784 2.9149L 115.784 0L 119 0ZM 115.784 11.9642L 115.784 7.00447C 114.814 6.72893 114.053 6.59116 113.503 6.59116C 112.778 6.59116 112.279 6.79419 112.003 7.20025C 111.743 7.6063 111.612 8.45467 111.612 9.74535C 111.612 10.978 111.743 11.8046 112.003 12.2252C 112.264 12.6312 112.728 12.8343 113.394 12.8343C 113.843 12.8343 114.227 12.7763 114.546 12.6603C 114.864 12.5297 115.277 12.2977 115.784 11.9642Z"/>
<path id="path13_fill" d="M 3.24394 4.58349L 1.55295 4.22648C 0.993121 4.11132 0.594339 3.88483 0.356604 3.54702C 0.118868 3.20153 0 2.71017 0 2.07293C 0 1.61228 0.0460134 1.24376 0.13804 0.96737C 0.230067 0.683301 0.391113 0.472169 0.62118 0.333973C 0.851247 0.195778 1.10432 0.107486 1.3804 0.0690983C 1.65648 0.023033 2.03226 0.00383933 2.50773 0.011517C 3.35897 0.011517 4.12203 0.072937 4.79689 0.195778L 4.73937 0.74856C 3.83445 0.702495 3.10207 0.679462 2.54224 0.679462C 2.16646 0.679462 1.89038 0.690978 1.714 0.714011C 1.53761 0.729366 1.36123 0.783109 1.18484 0.875239C 1.01613 0.96737 0.901095 1.1094 0.839743 1.30134C 0.786061 1.49328 0.75922 1.75816 0.75922 2.09597C 0.75922 2.57197 0.839744 2.91746 1.00079 3.13243C 1.16951 3.33973 1.45325 3.48176 1.85204 3.55854L 3.50852 3.90403C 4.09902 4.01919 4.51314 4.24951 4.75088 4.595C 4.99628 4.93282 5.11899 5.42802 5.11899 6.08061C 5.11899 6.54126 5.06914 6.91362 4.96944 7.19769C 4.86975 7.48176 4.70486 7.69673 4.4748 7.8426C 4.24473 7.98847 3.98399 8.08444 3.69257 8.13051C 3.40115 8.18425 3.01771 8.21112 2.54224 8.21112C 1.66798 8.21112 0.86275 8.15354 0.126537 8.03838L 0.17255 7.47408C 1.12349 7.52014 1.92106 7.54318 2.56524 7.54318C 3.26311 7.5355 3.73475 7.43953 3.98015 7.25527C 4.22556 7.07101 4.34826 6.67562 4.34826 6.06909C 4.34826 5.57005 4.2639 5.21688 4.09519 5.00959C 3.93414 4.8023 3.65039 4.66026 3.24394 4.58349Z"/>
<path id="path14_fill" d="M 13.9144 7.45105L 13.9604 8.02686C 13.2395 8.07293 12.1083 8.09596 10.5669 8.09596C 10.1451 8.09596 9.80384 7.97696 9.5431 7.73895C 9.29002 7.50095 9.16349 7.18233 9.16349 6.7831L 9.16349 1.43954C 9.16349 1.04031 9.29002 0.721689 9.5431 0.483685C 9.80384 0.245681 10.1451 0.12668 10.5669 0.12668C 12.1083 0.12668 13.2395 0.149712 13.9604 0.195778L 13.9144 0.771593L 10.6934 0.771593C 10.1796 0.771593 9.92271 1.05182 9.92271 1.61228L 9.92271 3.55854L 13.4657 3.55854L 13.4657 4.1689L 9.92271 4.1689L 9.92271 6.62187C 9.92271 7.17465 10.1796 7.45105 10.6934 7.45105L 13.9144 7.45105Z"/>
<path id="path15_fill" d="M 22.8962 7.4165L 22.9883 7.9808C 22.3901 8.14202 21.6309 8.22264 20.7106 8.22264C 19.5909 8.22264 18.8049 7.91554 18.3524 7.30133C 17.8999 6.68713 17.6737 5.62379 17.6737 4.11132C 17.6737 2.59885 17.8999 1.53551 18.3524 0.921305C 18.8049 0.307102 19.5909 0 20.7106 0C 21.5465 0 22.252 0.0729368 22.8272 0.21881L 22.7352 0.783109C 22.1523 0.714011 21.4775 0.679462 20.7106 0.679462C 19.867 0.679462 19.2803 0.928981 18.9506 1.42802C 18.6208 1.92706 18.4559 2.82149 18.4559 4.11132C 18.4559 5.40114 18.6208 6.29558 18.9506 6.79462C 19.2803 7.29366 19.867 7.54318 20.7106 7.54318C 21.5848 7.54318 22.3134 7.50095 22.8962 7.4165Z"/>
<path id="path16_fill" d="M 32.5059 0.138196L 32.5059 5.07869C 32.5059 6.22264 32.295 7.03262 31.8732 7.50863C 31.4514 7.98463 30.7306 8.22264 29.7106 8.22264C 28.6676 8.22264 27.9314 7.98463 27.502 7.50863C 27.0725 7.03262 26.8578 6.22264 26.8578 5.07869L 26.8578 0.138196L 27.6055 0.138196L 27.6055 5.07869C 27.6055 5.99231 27.7589 6.63339 28.0656 7.00191C 28.38 7.37043 28.9207 7.55469 29.6876 7.55469C 30.4468 7.55469 30.9798 7.37043 31.2866 7.00191C 31.5933 6.63339 31.7467 5.99231 31.7467 5.07869L 31.7467 0.138196L 32.5059 0.138196Z"/>
<path id="path17_fill" d="M 42.4217 8.08444L 41.6165 8.08444L 40.8572 5.58541C 40.6425 4.97888 40.2629 4.67562 39.7184 4.67562C 39.0205 4.67562 38.3649 4.66794 37.7513 4.65259L 37.7513 8.08444L 37.0036 8.08444L 37.0036 0.138196C 37.6401 0.0767753 38.5259 0.0460655 39.6609 0.0460655C 40.5735 0.0460655 41.2138 0.207293 41.582 0.52975C 41.9501 0.844529 42.1341 1.43954 42.1341 2.31478C 42.1341 2.98272 42.0191 3.47792 41.789 3.80038C 41.5666 4.11516 41.1947 4.31094 40.6732 4.38771L 40.6732 4.43378C 41.1257 4.56429 41.4401 4.94049 41.6165 5.56237L 42.4217 8.08444ZM 37.7513 4.01919L 39.6609 4.01919C 40.3051 4.01151 40.7499 3.89251 40.9953 3.66218C 41.2484 3.42418 41.3749 2.98656 41.3749 2.34933C 41.3749 1.70441 41.2484 1.26679 40.9953 1.03647C 40.7499 0.806141 40.3051 0.690978 39.6609 0.690978C 39.0014 0.690978 38.3649 0.698656 37.7513 0.714011L 37.7513 4.01919Z"/>
<path id="path18_fill" d="M 47.2331 8.08444L 46.4853 8.08444L 46.4853 0.138196L 47.2331 0.138196L 47.2331 8.08444Z"/>
<path id="path19_fill" d="M 57.0451 0.806141L 54.3994 0.806141L 54.3994 8.08444L 53.6401 8.08444L 53.6401 0.806141L 51.0059 0.806141L 51.0059 0.138196L 57.0451 0.138196L 57.0451 0.806141Z"/>
<path id="path20_fill" d="M 63.3397 5.23992L 63.3397 8.08444L 62.592 8.08444L 62.592 5.2284L 59.9232 0.138196L 60.7284 0.138196L 62.546 3.66218C 62.6457 3.8618 62.7722 4.14587 62.9256 4.51439L 63.0061 4.51439C 63.1058 4.27639 63.2323 3.99616 63.3857 3.6737L 65.2032 0.138196L 65.997 0.138196L 63.3397 5.23992Z"/>
<path id="path21_stroke" d="M 0 0L 46 0L 46 -1L 0 -1L 0 0Z"/>
</defs>
</svg>
