<svg width="84" height="67" viewBox="0 0 84 67" version="1.1" xmlns="http://www.w3.org/2000/svg" xmlns:xlink="http://www.w3.org/1999/xlink">
<title>empty-white-box</title>
<desc>Created using Figma</desc>
<g id="Canvas" transform="translate(-9197 -6398)">
<g id="empty-white-box">
<g id="Group">
<g id="Group">
<g id="Vector">
<mask id="mask0_outline_ins">
<use xlink:href="#path0_fill" fill="white" transform="translate(9197 6398)"/>
</mask>
<g mask="url(#mask0_outline_ins)">
<use xlink:href="#path1_stroke_2x" transform="translate(9197 6398)" fill="#FFFFFF"/>
</g>
</g>
</g>
</g>
</g>
</g>
<defs>
<path id="path0_fill" d="M 73.1635 5.63229C 72.6912 4.95638 71.8913 4.65187 71.1084 4.76855C 71.0786 4.76144 71.0488 4.74863 71.0191 4.74436L 38.9589 0.0230032C 38.6086 -0.0296461 38.2512 0.00877392 37.9179 0.131148L 12.24 9.57387C 12.2286 9.57814 12.2187 9.58525 12.2073 9.58952C 12.1804 9.6009 12.1549 9.61798 12.1265 9.62794C 11.9861 9.69055 11.8556 9.76454 11.7351 9.85134C 11.6982 9.87838 11.6627 9.90542 11.6258 9.9353C 11.4939 10.0434 11.3734 10.1615 11.2727 10.2967C 11.267 10.3053 11.2585 10.3095 11.2528 10.3181L 0.410112 25.1993C -0.00544295 25.7699 -0.113232 26.5127 0.12362 27.1786C 0.360473 27.846 0.912182 28.3497 1.59579 28.5262L 11.0046 30.9637L 11.0046 54.3016C 11.0046 55.2393 11.6159 56.0689 12.5109 56.3435L 46.9608 66.9047C 46.9722 66.9104 46.9849 66.9061 46.9963 66.9118C 47.1806 66.963 47.3735 66.9957 47.5664 66.9971C 47.5707 66.9971 47.5763 67 47.582 67L 47.5834 67C 47.7862 67 47.9848 66.963 48.1834 66.9047C 48.2458 66.8847 48.3039 66.8577 48.3677 66.8307C 48.4514 66.7994 48.5337 66.7766 48.6159 66.7339L 73.3365 52.9697C 74.013 52.5926 74.4314 51.8783 74.4314 51.1028L 74.4314 27.7692L 82.7936 23.7422C 83.3566 23.4719 83.7722 22.9639 83.931 22.3577C 84.0885 21.7501 83.9736 21.1055 83.6148 20.5918L 73.1635 5.63229ZM 38.8752 4.32601L 63.8993 8.01146L 47.2998 15.7552L 21.0134 10.8958L 38.8752 4.32601ZM 13.9008 13.921L 44.0207 19.4904L 35.1678 32.815L 5.69603 25.1808L 13.9008 13.921ZM 15.2595 52.7221L 15.2595 32.0651L 35.5664 37.3257C 35.7437 37.3698 35.9209 37.394 36.0982 37.394C 36.7974 37.394 37.4669 37.0468 37.8682 36.4435L 45.4546 25.0271L 45.4546 61.9784L 15.2595 52.7221ZM 70.1752 49.8449L 49.708 61.2385L 49.708 27.5244L 53.4452 35.4915C 53.6877 36.0052 54.1245 36.4037 54.6564 36.5915C 54.8876 36.6769 55.1287 36.7153 55.3684 36.7153C 55.6846 36.7153 55.9981 36.6441 56.2888 36.5075L 70.1723 29.8225L 70.1752 49.8449ZM 56.3838 31.7278L 50.4172 19.0095L 70.7014 9.54683L 78.6919 20.9831L 56.3838 31.7278Z"/>
<path id="path1_stroke_2x" d="M 73.1635 5.63229L 74.803 4.48686L 74.8029 4.48674L 73.1635 5.63229ZM 71.1084 4.76855L 70.6437 6.71382L 71.0203 6.80378L 71.4032 6.7467L 71.1084 4.76855ZM 71.0191 4.74436L 70.7277 6.72304L 70.7353 6.72413L 71.0191 4.74436ZM 38.9589 0.0230032L 38.6616 2.0008L 38.6675 2.00166L 38.9589 0.0230032ZM 37.9179 0.131148L 37.2285 -1.7463L 37.2276 -1.74595L 37.9179 0.131148ZM 12.24 9.57387L 11.5497 7.69676L 11.5427 7.69934L 11.5357 7.70197L 12.24 9.57387ZM 12.2073 9.58952L 11.5031 7.71762L 11.4658 7.73166L 11.4291 7.74716L 12.2073 9.58952ZM 12.1265 9.62794L 11.4639 7.7409L 11.3867 7.768L 11.312 7.80131L 12.1265 9.62794ZM 11.7351 9.85134L 10.5664 8.22828L 10.5594 8.23332L 10.5525 8.23841L 11.7351 9.85134ZM 11.6258 9.9353L 10.3667 8.38141L 10.3578 8.38869L 11.6258 9.9353ZM 11.2727 10.2967L 9.66879 9.10196L 9.63667 9.14507L 9.60691 9.18985L 11.2727 10.2967ZM 11.2528 10.3181L 12.8693 11.4958L 12.8947 11.4609L 12.9186 11.4249L 11.2528 10.3181ZM 0.410112 25.1993L -1.20633 24.0216L -1.20659 24.0219L 0.410112 25.1993ZM 0.12362 27.1786L 2.00844 26.5097L 2.00798 26.5084L 0.12362 27.1786ZM 1.59579 28.5262L 2.09737 26.5901L 2.09563 26.5896L 1.59579 28.5262ZM 11.0046 30.9637L 13.0046 30.9637L 13.0046 29.4158L 11.5062 29.0276L 11.0046 30.9637ZM 12.5109 56.3435L 11.9241 58.2555L 11.9247 58.2557L 12.5109 56.3435ZM 46.9608 66.9047L 47.8576 65.117L 47.7075 65.0417L 47.547 64.9925L 46.9608 66.9047ZM 46.9963 66.9118L 46.0995 68.6994L 46.2734 68.7867L 46.4609 68.8388L 46.9963 66.9118ZM 47.5664 66.9971L 47.5517 68.9971L 47.559 68.9971L 47.5664 68.9971L 47.5664 66.9971ZM 48.1834 66.9047L 48.7472 68.8235L 48.7695 68.817L 48.7916 68.8099L 48.1834 66.9047ZM 48.3677 66.8307L 47.667 64.9575L 47.627 64.9724L 47.5876 64.9891L 48.3677 66.8307ZM 48.6159 66.7339L 49.5372 68.5091L 49.5632 68.4956L 49.5889 68.4813L 48.6159 66.7339ZM 73.3365 52.9697L 74.3094 54.7171L 74.3102 54.7166L 73.3365 52.9697ZM 74.4314 27.7692L 73.5637 25.9672L 72.4314 26.5125L 72.4314 27.7692L 74.4314 27.7692ZM 82.7936 23.7422L 81.9279 21.9393L 81.9258 21.9403L 82.7936 23.7422ZM 83.931 22.3577L 85.8657 22.8647L 85.8671 22.8593L 83.931 22.3577ZM 83.6148 20.5918L 85.2544 19.4465L 85.2543 19.4464L 83.6148 20.5918ZM 38.8752 4.32601L 39.1666 2.34736L 38.6628 2.27315L 38.1848 2.44896L 38.8752 4.32601ZM 63.8993 8.01146L 64.7448 9.82395L 70.7886 7.00452L 64.1907 6.03281L 63.8993 8.01146ZM 47.2998 15.7552L 46.9362 17.7219L 47.5654 17.8382L 48.1453 17.5677L 47.2998 15.7552ZM 21.0134 10.8958L 20.323 9.01873L 13.4776 11.5366L 20.6499 12.8625L 21.0134 10.8958ZM 13.9008 13.921L 14.2644 11.9543L 13.026 11.7253L 12.2844 12.7432L 13.9008 13.921ZM 44.0207 19.4904L 45.6866 20.5972L 47.3627 18.0745L 44.3844 17.5238L 44.0207 19.4904ZM 35.1678 32.815L 34.6663 34.7511L 36.0453 35.1083L 36.8337 33.9218L 35.1678 32.815ZM 5.69603 25.1808L 4.07964 24.003L 2.3479 26.3796L 5.19452 27.1169L 5.69603 25.1808ZM 15.2595 52.7221L 13.2595 52.7221L 13.2595 54.2008L 14.6733 54.6343L 15.2595 52.7221ZM 15.2595 32.0651L 15.761 30.129L 13.2595 29.4809L 13.2595 32.0651L 15.2595 32.0651ZM 35.5664 37.3257L 35.0648 39.2618L 35.0741 39.2642L 35.0835 39.2665L 35.5664 37.3257ZM 37.8682 36.4435L 39.5334 37.5513L 39.534 37.5504L 37.8682 36.4435ZM 45.4546 25.0271L 47.4546 25.0271L 47.4546 18.4038L 43.7888 23.9202L 45.4546 25.0271ZM 45.4546 61.9784L 44.8684 63.8906L 47.4546 64.6834L 47.4546 61.9784L 45.4546 61.9784ZM 70.1752 49.8449L 71.148 51.5924L 72.1753 51.0204L 72.1752 49.8446L 70.1752 49.8449ZM 49.708 61.2385L 47.708 61.2385L 47.708 64.6408L 50.6808 62.9859L 49.708 61.2385ZM 49.708 27.5244L 51.5187 26.6751L 47.708 27.5244L 49.708 27.5244ZM 53.4452 35.4915L 51.6345 36.3409L 51.6366 36.3454L 53.4452 35.4915ZM 54.6564 36.5915L 55.3493 34.7153L 55.3359 34.7104L 55.3224 34.7056L 54.6564 36.5915ZM 56.2888 36.5075L 57.1393 38.3177L 57.1479 38.3136L 57.1565 38.3095L 56.2888 36.5075ZM 70.1723 29.8225L 72.1723 29.8222L 72.1719 26.6399L 69.3047 28.0205L 70.1723 29.8225ZM 56.3838 31.7278L 54.5732 32.5773L 55.4314 34.4065L 57.2517 33.5297L 56.3838 31.7278ZM 50.4172 19.0095L 49.5716 17.197L 47.7552 18.0444L 48.6065 19.8589L 50.4172 19.0095ZM 70.7014 9.54683L 72.3408 8.40133L 71.3785 7.02403L 69.8558 7.73435L 70.7014 9.54683ZM 78.6919 20.9831L 79.5598 22.785L 81.6779 21.7648L 80.3314 19.8376L 78.6919 20.9831ZM 74.8029 4.48674C 73.864 3.14307 72.2901 2.57034 70.8136 2.7904L 71.4032 6.7467C 71.4466 6.74023 71.4782 6.74737 71.495 6.75423C 71.5029 6.75748 71.5078 6.76071 71.5109 6.76316C 71.5136 6.76531 71.5181 6.76928 71.5241 6.77783L 74.8029 4.48674ZM 71.5731 2.82328C 71.6218 2.83492 71.6578 2.84579 71.6688 2.84915C 71.6747 2.85096 71.6786 2.8522 71.6759 2.85133C 71.6757 2.85127 71.6658 2.84813 71.6569 2.84538C 71.6384 2.83962 71.5941 2.82599 71.5389 2.8118C 71.4825 2.79733 71.4013 2.77871 71.3028 2.76459L 70.7353 6.72413C 70.6517 6.71215 70.5854 6.69673 70.5439 6.68608C 70.5036 6.67572 70.4742 6.66653 70.4705 6.6654C 70.4691 6.66496 70.4667 6.66418 70.4739 6.66647C 70.4786 6.66794 70.4899 6.67151 70.5033 6.67559C 70.5293 6.68349 70.5801 6.69863 70.6437 6.71382L 71.5731 2.82328ZM 71.3104 2.7657L 39.2503 -1.95566L 38.6675 2.00166L 70.7277 6.72302L 71.3104 2.7657ZM 39.2561 -1.95478C 38.5654 -2.05859 37.8691 -1.98148 37.2285 -1.7463L 38.6072 2.0086C 38.6333 1.99903 38.6517 1.9993 38.6616 2.00079L 39.2561 -1.95478ZM 37.2276 -1.74595L 11.5497 7.69676L 12.9302 11.451L 38.6082 2.00825L 37.2276 -1.74595ZM 11.5357 7.70197C 11.4937 7.71777 11.4567 7.73326 11.4253 7.74715C 11.3941 7.76099 11.3675 7.77371 11.3467 7.78398C 11.326 7.79417 11.3092 7.80287 11.2986 7.80846C 11.2887 7.81363 11.2801 7.81824 11.28 7.8183C 11.2775 7.81966 11.2834 7.81647 11.2906 7.81271C 11.2986 7.80852 11.3127 7.8012 11.3306 7.79234C 11.3487 7.7834 11.3726 7.77197 11.4011 7.75935C 11.4297 7.74669 11.4639 7.73236 11.5031 7.71762L 12.9116 11.4614C 12.9536 11.4456 12.9906 11.4301 13.022 11.4162C 13.0532 11.4024 13.0798 11.3897 13.1006 11.3794C 13.1213 11.3692 13.1381 11.3605 13.1487 11.3549C 13.1586 11.3498 13.1672 11.3452 13.1673 11.3451C 13.1698 11.3437 13.1639 11.3469 13.1567 11.3507C 13.1487 11.3549 13.1346 11.3622 13.1167 11.371C 13.0986 11.38 13.0747 11.3914 13.0462 11.404C 13.0176 11.4167 12.9834 11.431 12.9442 11.4458L 11.5357 7.70197ZM 11.4291 7.74716C 11.3955 7.76134 11.3663 7.77467 11.3423 7.78599C 11.3185 7.79727 11.2983 7.8073 11.2834 7.81486C 11.2687 7.82228 11.2566 7.82859 11.2504 7.83184C 11.2474 7.83342 11.2443 7.83506 11.2433 7.83557C 11.2418 7.83637 11.2419 7.83634 11.2424 7.83607C 11.2433 7.83559 11.2497 7.83223 11.2589 7.82762C 11.2683 7.8229 11.2826 7.81581 11.3005 7.80743C 11.3358 7.79098 11.392 7.76613 11.4639 7.7409L 12.7891 11.515C 12.8752 11.4848 12.9453 11.4541 12.9941 11.4312C 13.0414 11.4091 13.0791 11.3895 13.0925 11.3825C 13.0938 11.3818 13.1113 11.3726 13.1044 11.3763C 13.1043 11.3763 13.104 11.3765 13.1035 11.3767C 13.1029 11.377 13.1021 11.3775 13.101 11.378C 13.0989 11.3791 13.0955 11.3808 13.0913 11.383C 13.0761 11.3907 13.0376 11.4099 12.9856 11.4319L 11.4291 7.74716ZM 11.312 7.80131C 11.0564 7.91527 10.8059 8.05585 10.5664 8.22828L 12.9037 11.4744C 12.9053 11.4732 12.9158 11.4658 12.941 11.4546L 11.312 7.80131ZM 10.5525 8.23841C 10.495 8.28055 10.4333 8.32742 10.3667 8.38144L 12.885 11.4892C 12.8921 11.4834 12.9013 11.4762 12.9176 11.4643L 10.5525 8.23841ZM 10.3578 8.38869C 10.1381 8.56877 9.89229 8.80192 9.66879 9.10196L 12.8766 11.4915C 12.8652 11.5068 12.8584 11.5134 12.8604 11.5114C 12.8627 11.5091 12.8726 11.4994 12.8939 11.4819L 10.3578 8.38869ZM 9.60691 9.18985C 9.69116 9.06307 9.77476 8.96931 9.83327 8.90907C 9.862 8.87948 9.88608 8.85659 9.90073 8.84292C 9.90817 8.83597 9.91416 8.83049 9.91764 8.82733C 9.92077 8.82448 9.9234 8.8221 9.92245 8.82296C 9.92236 8.82305 9.92137 8.82394 9.92025 8.82495C 9.91904 8.82604 9.9172 8.82771 9.91498 8.82973C 9.91062 8.8337 9.90375 8.83999 9.89543 8.84775C 9.87903 8.86306 9.85323 8.88762 9.82281 8.91894C 9.76093 8.98265 9.67414 9.08015 9.58706 9.2112L 12.9186 11.4249C 12.8344 11.5517 12.7508 11.6455 12.6923 11.7057C 12.6635 11.7353 12.6395 11.7582 12.6248 11.7719C 12.6174 11.7788 12.6114 11.7843 12.6079 11.7875C 12.6048 11.7903 12.6021 11.7927 12.6031 11.7918C 12.6032 11.7917 12.6042 11.7909 12.6053 11.7898C 12.6065 11.7888 12.6083 11.7871 12.6106 11.7851C 12.6149 11.7811 12.6218 11.7748 12.6301 11.767C 12.6465 11.7517 12.6723 11.7272 12.7027 11.6959C 12.7646 11.6321 12.8514 11.5346 12.9385 11.4036L 9.60691 9.18985ZM 9.6364 9.14031L -1.20633 24.0216L 2.02655 26.3771L 12.8693 11.4958L 9.6364 9.14031ZM -1.20659 24.0219C -2.01101 25.1265 -2.2189 26.5607 -1.76074 27.8488L 2.00798 26.5084C 1.99243 26.4647 2.00012 26.4134 2.02682 26.3767L -1.20659 24.0219ZM -1.76119 27.8476C -1.30172 29.1422 -0.230418 30.1204 1.09595 30.4627L 2.09563 26.5896C 2.05478 26.5791 2.02267 26.5498 2.00844 26.5097L -1.76119 27.8476ZM 1.09422 30.4623L 10.5031 32.8998L 11.5062 29.0276L 2.09737 26.5901L 1.09422 30.4623ZM 9.00464 30.9637L 9.00464 54.3016L 13.0046 54.3016L 13.0046 30.9637L 9.00464 30.9637ZM 9.00464 54.3016C 9.00464 56.1141 10.1857 57.722 11.9241 58.2555L 13.0976 54.4315C 13.0461 54.4157 13.0046 54.3645 13.0046 54.3016L 9.00464 54.3016ZM 11.9247 58.2557L 46.3746 68.8168L 47.547 64.9925L 13.0971 54.4313L 11.9247 58.2557ZM 46.064 68.6923C 46.1784 68.7497 46.2881 68.7912 46.3882 68.8213C 46.4873 68.8512 46.5749 68.8693 46.6447 68.8808C 46.6797 68.8866 46.711 68.8908 46.7375 68.8939C 46.764 68.897 46.7868 68.8992 46.8047 68.9007C 46.8224 68.9022 46.8368 68.9032 46.8458 68.9038C 46.8504 68.9041 46.8542 68.9044 46.8567 68.9045C 46.859 68.9046 46.861 68.9048 46.8611 68.9048C 46.8629 68.9049 46.8572 68.9045 46.8504 68.9041C 46.8428 68.9036 46.8299 68.9027 46.8137 68.9013C 46.7974 68.8999 46.776 68.8979 46.7511 68.895C 46.726 68.892 46.6962 68.888 46.6627 68.8825C 46.5959 68.8715 46.5112 68.854 46.415 68.825C 46.3179 68.7958 46.211 68.7554 46.0995 68.6994L 47.8931 65.1241C 47.7787 65.0667 47.669 65.0252 47.5689 64.9951C 47.4698 64.9652 47.3821 64.9471 47.3123 64.9356C 47.2774 64.9299 47.2461 64.9256 47.2196 64.9225C 47.1931 64.9194 47.1702 64.9172 47.1524 64.9157C 47.1347 64.9142 47.1203 64.9132 47.1112 64.9126C 47.1066 64.9123 47.1028 64.9121 47.1004 64.9119C 47.0981 64.9118 47.0961 64.9117 47.096 64.9117C 47.0942 64.9116 47.0999 64.9119 47.1067 64.9123C 47.1142 64.9128 47.1272 64.9137 47.1434 64.9151C 47.1597 64.9165 47.1811 64.9185 47.206 64.9215C 47.2311 64.9244 47.2609 64.9284 47.2943 64.9339C 47.3612 64.9449 47.4459 64.9624 47.5421 64.9914C 47.6392 65.0207 47.7461 65.061 47.8576 65.117L 46.064 68.6923ZM 46.4609 68.8388C 46.7756 68.9262 47.1462 68.9941 47.5517 68.9971L 47.5812 64.9972C 47.5925 64.9973 47.5938 64.9982 47.5841 64.9967C 47.5744 64.9952 47.5569 64.9918 47.5317 64.9848L 46.4609 68.8388ZM 47.5664 68.9971C 47.5112 68.9971 47.4611 68.9949 47.417 68.9915C 47.3729 68.9882 47.3333 68.9837 47.2991 68.9791C 47.2649 68.9745 47.2346 68.9694 47.2089 68.9647C 47.1831 68.96 47.1607 68.9554 47.1422 68.9513C 47.1238 68.9473 47.1081 68.9436 47.0959 68.9406C 47.0839 68.9377 47.074 68.9351 47.0674 68.9334C 47.0611 68.9318 47.0562 68.9305 47.0548 68.9301C 47.0542 68.9299 47.0535 68.9297 47.0541 68.9299C 47.0543 68.93 47.0554 68.9303 47.0568 68.9306C 47.0596 68.9314 47.0654 68.9329 47.0727 68.9348C 47.0802 68.9368 47.0902 68.9393 47.1022 68.9422C 47.1257 68.948 47.1603 68.956 47.2024 68.964C 47.2447 68.9721 47.2984 68.981 47.3609 68.9878C 47.4236 68.9948 47.4981 69 47.582 69L 47.582 65C 47.6646 65 47.7376 65.0051 47.7989 65.0119C 47.86 65.0186 47.9123 65.0273 47.9532 65.0351C 47.9939 65.0429 48.0271 65.0506 48.0492 65.056C 48.0605 65.0587 48.0699 65.0611 48.0766 65.0629C 48.0833 65.0646 48.0884 65.0659 48.0905 65.0665C 48.0911 65.0667 48.0916 65.0668 48.0919 65.0669C 48.092 65.0669 48.0921 65.0669 48.0922 65.0669C 48.0922 65.067 48.0923 65.067 48.0923 65.067C 48.0923 65.067 48.0923 65.067 48.0923 65.067C 48.0925 65.067 48.0915 65.0668 48.0906 65.0665C 48.0886 65.066 48.083 65.0645 48.076 65.0627C 48.0688 65.0608 48.0583 65.0581 48.0456 65.055C 48.0328 65.0519 48.0165 65.048 47.9975 65.0438C 47.9784 65.0397 47.9554 65.0349 47.929 65.0301C 47.9027 65.0253 47.8718 65.0202 47.837 65.0154C 47.8022 65.0107 47.7621 65.0062 47.7175 65.0028C 47.6728 64.9995 47.6222 64.9971 47.5664 64.9971L 47.5664 68.9971ZM 47.582 69L 47.5834 69L 47.5834 65L 47.582 65L 47.582 69ZM 47.5834 69C 48.0303 69 48.4247 68.9183 48.7472 68.8235L 47.6196 64.9858C 47.5449 65.0077 47.5422 65 47.5834 65L 47.5834 69ZM 48.7916 68.8099C 48.8992 68.7756 48.9878 68.74 49.0441 68.7165C 49.0721 68.7049 49.0976 68.6939 49.1134 68.6871C 49.1324 68.6789 49.1398 68.6756 49.1479 68.6722L 47.5876 64.9891C 47.5749 64.9945 47.5632 64.9995 47.5534 65.0037C 47.5485 65.0058 47.5438 65.0079 47.5396 65.0097C 47.5376 65.0105 47.5355 65.0114 47.5336 65.0122C 47.5317 65.0131 47.5299 65.0138 47.5282 65.0146C 47.5211 65.0177 47.5163 65.0197 47.5123 65.0214C 47.5084 65.0231 47.5065 65.0239 47.5059 65.0241C 47.5044 65.0248 47.5107 65.0221 47.5219 65.0179C 47.5335 65.0135 47.5517 65.0069 47.5751 64.9994L 48.7916 68.8099ZM 49.0685 68.7039C 49.0652 68.7051 49.0665 68.7045 49.0858 68.6979C 49.0987 68.6934 49.1362 68.6805 49.1726 68.6673C 49.2512 68.6389 49.3846 68.5883 49.5372 68.5091L 47.6947 64.9587C 47.7307 64.94 47.7607 64.9267 47.7813 64.918C 47.8012 64.9097 47.8136 64.9053 47.8121 64.9058C 47.8115 64.906 47.8089 64.907 47.8023 64.9092C 47.7991 64.9104 47.7955 64.9116 47.7908 64.9133C 47.7871 64.9145 47.78 64.917 47.7748 64.9188C 47.763 64.9229 47.747 64.9285 47.7294 64.9347C 47.7116 64.941 47.6904 64.9487 47.667 64.9575L 49.0685 68.7039ZM 49.5889 68.4813L 74.3094 54.7171L 72.3636 51.2223L 47.643 64.9865L 49.5889 68.4813ZM 74.3102 54.7166C 75.6227 53.9851 76.4314 52.6009 76.4314 51.1028L 72.4314 51.1028C 72.4314 51.1557 72.4033 51.2001 72.3628 51.2227L 74.3102 54.7166ZM 76.4314 51.1028L 76.4314 27.7692L 72.4314 27.7692L 72.4314 51.1028L 76.4314 51.1028ZM 75.2992 29.5711L 83.6613 25.5442L 81.9258 21.9403L 73.5637 25.9672L 75.2992 29.5711ZM 83.6593 25.5451C 84.7583 25.0174 85.5599 24.0316 85.8657 22.8647L 81.9964 21.8507C 81.9845 21.8962 81.955 21.9263 81.9279 21.9393L 83.6593 25.5451ZM 85.8671 22.8593C 86.1704 21.6889 85.9498 20.4421 85.2544 19.4465L 81.9752 21.7371C 81.9974 21.7689 82.0066 21.8112 81.995 21.856L 85.8671 22.8593ZM 85.2543 19.4464L 74.803 4.48686L 71.524 6.77771L 81.9753 21.7372L 85.2543 19.4464ZM 38.5838 6.30467L 63.6079 9.99012L 64.1907 6.03281L 39.1666 2.34736L 38.5838 6.30467ZM 63.0538 6.19898L 46.4543 13.9427L 48.1453 17.5677L 64.7448 9.82395L 63.0538 6.19898ZM 47.6633 13.7885L 21.377 8.92911L 20.6499 12.8625L 46.9362 17.7219L 47.6633 13.7885ZM 21.7038 12.7728L 39.5656 6.20307L 38.1848 2.44896L 20.323 9.01873L 21.7038 12.7728ZM 13.5371 15.8877L 43.6571 21.4571L 44.3844 17.5238L 14.2644 11.9543L 13.5371 15.8877ZM 42.3549 18.3836L 33.502 31.7082L 36.8337 33.9218L 45.6866 20.5972L 42.3549 18.3836ZM 35.6693 30.8789L 6.19754 23.2447L 5.19452 27.1169L 34.6663 34.7511L 35.6693 30.8789ZM 7.31243 26.3586L 15.5172 15.0988L 12.2844 12.7432L 4.07964 24.003L 7.31243 26.3586ZM 17.2595 52.7221L 17.2595 32.0651L 13.2595 32.0651L 13.2595 52.7221L 17.2595 52.7221ZM 14.7579 34.0012L 35.0648 39.2618L 36.0679 35.3896L 15.761 30.129L 14.7579 34.0012ZM 35.0835 39.2665C 35.3978 39.3448 35.7379 39.394 36.0982 39.394L 36.0982 35.394C 36.1039 35.394 36.0895 35.3949 36.0493 35.3849L 35.0835 39.2665ZM 36.0982 39.394C 37.4578 39.394 38.7563 38.7194 39.5334 37.5513L 36.2031 35.3357C 36.1774 35.3742 36.1371 35.394 36.0982 35.394L 36.0982 39.394ZM 39.534 37.5504L 47.1204 26.1341L 43.7888 23.9202L 36.2025 35.3366L 39.534 37.5504ZM 43.4546 25.0271L 43.4546 61.9784L 47.4546 61.9784L 47.4546 25.0271L 43.4546 25.0271ZM 46.0408 60.0662L 15.8457 50.8099L 14.6733 54.6343L 44.8684 63.8906L 46.0408 60.0662ZM 69.2024 48.0974L 48.7352 59.491L 50.6808 62.9859L 71.148 51.5924L 69.2024 48.0974ZM 51.708 61.2385L 51.708 27.5244L 47.708 27.5244L 47.708 61.2385L 51.708 61.2385ZM 47.8973 28.3738L 51.6345 36.3409L 55.2559 34.6422L 51.5187 26.6751L 47.8973 28.3738ZM 51.6366 36.3454C 52.103 37.3332 52.9463 38.1086 53.9904 38.4773L 55.3224 34.7056C 55.3027 34.6987 55.2724 34.6773 55.2537 34.6377L 51.6366 36.3454ZM 53.9635 38.4676C 54.4371 38.6425 54.9152 38.7153 55.3684 38.7153L 55.3684 34.7153C 55.3421 34.7153 55.338 34.7112 55.3493 34.7153L 53.9635 38.4676ZM 55.3684 38.7153C 55.9859 38.7153 56.5891 38.5762 57.1393 38.3177L 55.4383 34.6974C 55.407 34.7121 55.3833 34.7153 55.3684 34.7153L 55.3684 38.7153ZM 57.1565 38.3095L 71.04 31.6245L 69.3047 28.0205L 55.4211 34.7055L 57.1565 38.3095ZM 68.1723 29.8228L 68.1752 49.8451L 72.1752 49.8446L 72.1723 29.8222L 68.1723 29.8228ZM 58.1945 30.8784L 52.2278 18.16L 48.6065 19.8589L 54.5732 32.5773L 58.1945 30.8784ZM 51.2627 20.822L 71.5469 11.3593L 69.8558 7.73435L 49.5716 17.197L 51.2627 20.822ZM 69.0619 10.6923L 77.0525 22.1286L 80.3314 19.8376L 72.3408 8.40133L 69.0619 10.6923ZM 77.8241 19.1812L 55.516 29.9259L 57.2517 33.5297L 79.5598 22.785L 77.8241 19.1812Z"/>
</defs>
</svg>
