<svg width="186" height="186" viewBox="0 0 186 186" version="1.1" xmlns="http://www.w3.org/2000/svg" xmlns:xlink="http://www.w3.org/1999/xlink">
    <title>Group 154.1</title>
    <desc>Created using Figma</desc>
    <g id="Canvas" transform="translate(-10774 -6256)">
        <g id="Group 154.1">
            <g id="Group">
                <g id="Vector">
                    <use xlink:href="#path0_fill" transform="translate(10858.4 6347.08)" fill="#11F088"/>
                    <mask id="mask0_outline_ins">
                        <use xlink:href="#path0_fill" fill="white" transform="translate(10858.4 6347.08)"/>
                    </mask>
                    <g mask="url(#mask0_outline_ins)">
                        <use xlink:href="#path1_stroke_2x" transform="translate(10858.4 6347.08)" fill="#11F088"/>
                    </g>
                </g>
                <g id="Vector">
                    <use xlink:href="#path2_fill" transform="translate(10858.4 6340.02)" fill="#11F088"/>
                    <mask id="mask1_outline_ins">
                        <use xlink:href="#path2_fill" fill="white" transform="translate(10858.4 6340.02)"/>
                    </mask>
                    <g mask="url(#mask1_outline_ins)">
                        <use xlink:href="#path3_stroke_2x" transform="translate(10858.4 6340.02)" fill="#11F088"/>
                    </g>
                </g>
                <g id="Vector">
                    <use xlink:href="#path4_fill" transform="translate(10858.4 6354.15)" fill="#11F088"/>
                    <mask id="mask2_outline_ins">
                        <use xlink:href="#path4_fill" fill="white" transform="translate(10858.4 6354.15)"/>
                    </mask>
                    <g mask="url(#mask2_outline_ins)">
                        <use xlink:href="#path5_stroke_2x" transform="translate(10858.4 6354.15)" fill="#11F088"/>
                    </g>
                </g>
                <g id="Vector">
                    <use xlink:href="#path0_fill" transform="translate(10858.4 6361.22)" fill="#11F088"/>
                    <mask id="mask3_outline_ins">
                        <use xlink:href="#path0_fill" fill="white" transform="translate(10858.4 6361.22)"/>
                    </mask>
                    <g mask="url(#mask3_outline_ins)">
                        <use xlink:href="#path1_stroke_2x" transform="translate(10858.4 6361.22)" fill="#11F088"/>
                    </g>
                </g>
                <g id="Vector">
                    <use xlink:href="#path0_fill" transform="translate(10858.4 6368.28)" fill="#11F088"/>
                    <mask id="mask4_outline_ins">
                        <use xlink:href="#path0_fill" fill="white" transform="translate(10858.4 6368.28)"/>
                    </mask>
                    <g mask="url(#mask4_outline_ins)">
                        <use xlink:href="#path1_stroke_2x" transform="translate(10858.4 6368.28)" fill="#11F088"/>
                    </g>
                </g>
                <g id="Vector">
                    <use xlink:href="#path6_fill" transform="translate(10847 6325)" fill="#11F088"/>
                    <mask id="mask5_outline_ins">
                        <use xlink:href="#path6_fill" fill="white" transform="translate(10847 6325)"/>
                    </mask>
                    <g mask="url(#mask5_outline_ins)">
                        <use xlink:href="#path7_stroke_2x" transform="translate(10847 6325)" fill="#11F088"/>
                    </g>
                </g>
            </g>
            <g id="Ellipse">
                <mask id="mask6_outline_ins">
                    <use xlink:href="#path8_fill" fill="white" transform="translate(10797.1 6281.44)"/>
                </mask>
                <g mask="url(#mask6_outline_ins)">
                    <use xlink:href="#path9_stroke_2x" transform="translate(10797.1 6281.44)" fill="#11F088" fill-opacity="0.35"/>
                </g>
            </g>
            <g id="Ellipse">
                <use xlink:href="#path10_stroke" transform="translate(10818.2 6307.18)" fill="#11F088" fill-opacity="0.15"/>
            </g>
            <g id="Ellipse">
                <mask id="mask7_outline_ins">
                    <use xlink:href="#path11_fill" fill="white" transform="translate(10774 6256)"/>
                </mask>
                <g mask="url(#mask7_outline_ins)">
                    <use xlink:href="#path12_stroke_2x" transform="translate(10774 6256)" fill="#11F088" fill-opacity="0.04"/>
                </g>
            </g>
        </g>
    </g>
    <defs>
        <path id="path0_fill" d="M 22.75 0L 0.875 0C 0.392 0 0 0.39485 0 0.883333C 0 1.37182 0.392 1.76667 0.875 1.76667L 22.75 1.76667C 23.233 1.76667 23.625 1.37182 23.625 0.883333C 23.625 0.39485 23.233 0 22.75 0Z"/>
        <path id="path1_stroke_2x" d="M 22.75 -4L 0.875 -4L 0.875 4L 22.75 4L 22.75 -4ZM 0.875 -4C -1.85021 -4 -4 -1.78108 -4 0.883333L 4 0.883333C 4 2.57078 2.63421 4 0.875 4L 0.875 -4ZM -4 0.883333C -4 3.54774 -1.85021 5.76667 0.875 5.76667L 0.875 -2.23333C 2.63421 -2.23333 4 -0.804109 4 0.883333L -4 0.883333ZM 0.875 5.76667L 22.75 5.76667L 22.75 -2.23333L 0.875 -2.23333L 0.875 5.76667ZM 22.75 5.76667C 25.4752 5.76667 27.625 3.54774 27.625 0.883333L 19.625 0.883333C 19.625 -0.804109 20.9908 -2.23333 22.75 -2.23333L 22.75 5.76667ZM 27.625 0.883333C 27.625 -1.78108 25.4752 -4 22.75 -4L 22.75 4C 20.9908 4 19.625 2.57078 19.625 0.883333L 27.625 0.883333Z"/>
        <path id="path2_fill" d="M 0.875 1.76667L 9.625 1.76667C 10.108 1.76667 10.5 1.37182 10.5 0.883333C 10.5 0.39485 10.108 0 9.625 0L 0.875 0C 0.392 0 0 0.39485 0 0.883333C 0 1.37182 0.392 1.76667 0.875 1.76667Z"/>
        <path id="path3_stroke_2x" d="M 0.875 5.76667L 9.625 5.76667L 9.625 -2.23333L 0.875 -2.23333L 0.875 5.76667ZM 9.625 5.76667C 12.3502 5.76667 14.5 3.54774 14.5 0.883333L 6.5 0.883333C 6.5 -0.804109 7.86579 -2.23333 9.625 -2.23333L 9.625 5.76667ZM 14.5 0.883333C 14.5 -1.78108 12.3502 -4 9.625 -4L 9.625 4C 7.86579 4 6.5 2.57078 6.5 0.883333L 14.5 0.883333ZM 9.625 -4L 0.875 -4L 0.875 4L 9.625 4L 9.625 -4ZM 0.875 -4C -1.85021 -4 -4 -1.78108 -4 0.883333L 4 0.883333C 4 2.57078 2.63421 4 0.875 4L 0.875 -4ZM -4 0.883333C -4 3.54774 -1.85021 5.76667 0.875 5.76667L 0.875 -2.23333C 2.63421 -2.23333 4 -0.804109 4 0.883333L -4 0.883333Z"/>
        <path id="path4_fill" d="M 22.75 0L 0.875 0C 0.392 0 0 0.39485 0 0.883333C 0 1.37182 0.392 1.76667 0.875 1.76667L 22.75 1.76667C 23.233 1.76667 23.625 1.37182 23.625 0.883333C 23.625 0.39485 23.233 0 22.75 0Z"/>
        <path id="path5_stroke_2x" d="M 22.75 -4L 0.875 -4L 0.875 4L 22.75 4L 22.75 -4ZM 0.875 -4C -1.85021 -4 -4 -1.78108 -4 0.883333L 4 0.883333C 4 2.57078 2.63421 4 0.875 4L 0.875 -4ZM -4 0.883333C -4 3.54774 -1.85021 5.76667 0.875 5.76667L 0.875 -2.23333C 2.63421 -2.23333 4 -0.804108 4 0.883333L -4 0.883333ZM 0.875 5.76667L 22.75 5.76667L 22.75 -2.23333L 0.875 -2.23333L 0.875 5.76667ZM 22.75 5.76667C 25.4752 5.76667 27.625 3.54775 27.625 0.883333L 19.625 0.883333C 19.625 -0.804112 20.9908 -2.23333 22.75 -2.23333L 22.75 5.76667ZM 27.625 0.883333C 27.625 -1.78108 25.4752 -4 22.75 -4L 22.75 4C 20.9908 4 19.625 2.57078 19.625 0.883333L 27.625 0.883333Z"/>
        <path id="path6_fill" d="M 37.625 12.8843L 37.625 0L 0 0L 0 48.5833L 4.375 48.5833L 4.375 53L 42 53L 42 17.301L 37.625 12.8843ZM 29.75 7.43237L 37.625 15.3824L 39.0127 16.7833L 29.75 16.7833L 29.75 7.43237ZM 1.75 46.8167L 1.75 1.76667L 35.875 1.76667L 35.875 11.1176L 29.2373 4.41667L 4.375 4.41667L 4.375 46.8167L 1.75 46.8167ZM 6.125 51.2333L 6.125 48.5833L 6.125 6.18333L 28 6.18333L 28 18.55L 40.25 18.55L 40.25 51.2333L 6.125 51.2333Z"/>
        <path id="path7_stroke_2x" d="M 37.625 12.8843L 33.625 12.8843L 33.625 14.5301L 34.7832 15.6993L 37.625 12.8843ZM 37.625 0L 41.625 0L 41.625 -4L 37.625 -4L 37.625 0ZM 0 0L 0 -4L -4 -4L -4 0L 0 0ZM 0 48.5833L -4 48.5833L -4 52.5833L 0 52.5833L 0 48.5833ZM 4.375 48.5833L 8.375 48.5833L 8.375 44.5833L 4.375 44.5833L 4.375 48.5833ZM 4.375 53L 0.375 53L 0.375 57L 4.375 57L 4.375 53ZM 42 53L 42 57L 46 57L 46 53L 42 53ZM 42 17.301L 46 17.301L 46 15.6552L 44.8418 14.486L 42 17.301ZM 29.75 7.43237L 32.5918 4.61738L 25.75 -2.28958L 25.75 7.43237L 29.75 7.43237ZM 37.625 15.3824L 40.4668 12.5674L 40.4668 12.5674L 37.625 15.3824ZM 39.0127 16.7833L 39.0127 20.7833L 48.6052 20.7833L 41.8545 13.9683L 39.0127 16.7833ZM 29.75 16.7833L 25.75 16.7833L 25.75 20.7833L 29.75 20.7833L 29.75 16.7833ZM 1.75 46.8167L -2.25 46.8167L -2.25 50.8167L 1.75 50.8167L 1.75 46.8167ZM 1.75 1.76667L 1.75 -2.23333L -2.25 -2.23333L -2.25 1.76667L 1.75 1.76667ZM 35.875 1.76667L 39.875 1.76667L 39.875 -2.23333L 35.875 -2.23333L 35.875 1.76667ZM 35.875 11.1176L 33.0332 13.9326L 39.875 20.8396L 39.875 11.1176L 35.875 11.1176ZM 29.2373 4.41667L 32.0791 1.60168L 30.9052 0.416667L 29.2373 0.416667L 29.2373 4.41667ZM 4.375 4.41667L 4.375 0.416667L 0.375 0.416667L 0.375 4.41667L 4.375 4.41667ZM 4.375 46.8167L 4.375 50.8167L 8.375 50.8167L 8.375 46.8167L 4.375 46.8167ZM 6.125 51.2333L 2.125 51.2333L 2.125 55.2333L 6.125 55.2333L 6.125 51.2333ZM 6.125 6.18333L 6.125 2.18333L 2.125 2.18333L 2.125 6.18333L 6.125 6.18333ZM 28 6.18333L 32 6.18333L 32 2.18333L 28 2.18333L 28 6.18333ZM 28 18.55L 24 18.55L 24 22.55L 28 22.55L 28 18.55ZM 40.25 18.55L 44.25 18.55L 44.25 14.55L 40.25 14.55L 40.25 18.55ZM 40.25 51.2333L 40.25 55.2333L 44.25 55.2333L 44.25 51.2333L 40.25 51.2333ZM 41.625 12.8843L 41.625 0L 33.625 0L 33.625 12.8843L 41.625 12.8843ZM 37.625 -4L 0 -4L 0 4L 37.625 4L 37.625 -4ZM -4 0L -4 48.5833L 4 48.5833L 4 0L -4 0ZM 0 52.5833L 4.375 52.5833L 4.375 44.5833L 0 44.5833L 0 52.5833ZM 0.375 48.5833L 0.375 53L 8.375 53L 8.375 48.5833L 0.375 48.5833ZM 4.375 57L 42 57L 42 49L 4.375 49L 4.375 57ZM 46 53L 46 17.301L 38 17.301L 38 53L 46 53ZM 44.8418 14.486L 40.4668 10.0693L 34.7832 15.6993L 39.1582 20.116L 44.8418 14.486ZM 26.9082 10.2474L 34.7832 18.1974L 40.4668 12.5674L 32.5918 4.61738L 26.9082 10.2474ZM 34.7832 18.1974L 36.1709 19.5983L 41.8545 13.9683L 40.4668 12.5674L 34.7832 18.1974ZM 39.0127 12.7833L 29.75 12.7833L 29.75 20.7833L 39.0127 20.7833L 39.0127 12.7833ZM 33.75 16.7833L 33.75 7.43237L 25.75 7.43237L 25.75 16.7833L 33.75 16.7833ZM 5.75 46.8167L 5.75 1.76667L -2.25 1.76667L -2.25 46.8167L 5.75 46.8167ZM 1.75 5.76667L 35.875 5.76667L 35.875 -2.23333L 1.75 -2.23333L 1.75 5.76667ZM 31.875 1.76667L 31.875 11.1176L 39.875 11.1176L 39.875 1.76667L 31.875 1.76667ZM 38.7168 8.30264L 32.0791 1.60168L 26.3955 7.23166L 33.0332 13.9326L 38.7168 8.30264ZM 29.2373 0.416667L 4.375 0.416667L 4.375 8.41667L 29.2373 8.41667L 29.2373 0.416667ZM 0.375 4.41667L 0.375 46.8167L 8.375 46.8167L 8.375 4.41667L 0.375 4.41667ZM 4.375 42.8167L 1.75 42.8167L 1.75 50.8167L 4.375 50.8167L 4.375 42.8167ZM 10.125 51.2333L 10.125 48.5833L 2.125 48.5833L 2.125 51.2333L 10.125 51.2333ZM 10.125 48.5833L 10.125 6.18333L 2.125 6.18333L 2.125 48.5833L 10.125 48.5833ZM 6.125 10.1833L 28 10.1833L 28 2.18333L 6.125 2.18333L 6.125 10.1833ZM 24 6.18333L 24 18.55L 32 18.55L 32 6.18333L 24 6.18333ZM 28 22.55L 40.25 22.55L 40.25 14.55L 28 14.55L 28 22.55ZM 36.25 18.55L 36.25 51.2333L 44.25 51.2333L 44.25 18.55L 36.25 18.55ZM 40.25 47.2333L 6.125 47.2333L 6.125 55.2333L 40.25 55.2333L 40.25 47.2333Z"/>
        <path id="path8_fill" d="M 138.092 69.0461C 138.092 107.179 107.179 138.092 69.0461 138.092C 30.913 138.092 0 107.179 0 69.0461C 0 30.913 30.913 0 69.0461 0C 107.179 0 138.092 30.913 138.092 69.0461Z"/>
        <path id="path9_stroke_2x" d="M 138.592 69.0461C 138.592 68.3921 138.583 67.7402 138.565 67.0906L 137.566 67.1182C 137.583 67.7587 137.592 68.4013 137.592 69.0461L 138.592 69.0461ZM 138.35 63.1961C 138.241 61.8935 138.097 60.6011 137.917 59.3198L 136.927 59.4584C 137.104 60.7213 137.246 61.9952 137.353 63.2791L 138.35 63.1961ZM 137.268 55.4739C 137.015 54.1932 136.727 52.9251 136.404 51.6707L 135.435 51.9198C 135.753 53.156 136.038 54.4058 136.287 55.668L 137.268 55.4739ZM 135.325 47.9199C 134.929 46.6766 134.499 45.4484 134.036 44.2366L 133.102 44.5934C 133.558 45.7877 133.982 46.998 134.372 48.2233L 135.325 47.9199ZM 132.542 40.6324C 132.009 39.4431 131.443 38.2715 130.847 37.1186L 129.958 37.5784C 130.547 38.7145 131.104 39.8693 131.629 41.0414L 132.542 40.6324ZM 128.956 33.706C 128.294 32.585 127.601 31.4842 126.878 30.4049L 126.047 30.9612C 126.759 32.0251 127.442 33.11 128.096 34.2149L 128.956 33.706ZM 124.618 27.225C 123.834 26.1856 123.022 25.169 122.183 24.1762L 121.42 24.8217C 122.247 25.8003 123.047 26.8024 123.819 27.8269L 124.618 27.225ZM 119.583 21.2681C 118.689 20.3231 117.769 19.4032 116.824 18.5095L 116.137 19.2361C 117.068 20.117 117.975 21.0238 118.856 21.9552L 119.583 21.2681ZM 113.916 15.909C 112.923 15.0698 111.907 14.2579 110.867 13.4745L 110.265 14.2731C 111.29 15.0453 112.292 15.8455 113.27 16.6727L 113.916 15.909ZM 107.687 11.2143C 106.608 10.4916 105.507 9.79842 104.386 9.13575L 103.877 9.99659C 104.982 10.6497 106.067 11.333 107.131 12.0452L 107.687 11.2143ZM 100.974 7.24565C 99.8208 6.64889 98.6491 6.08342 97.4598 5.55039L 97.0508 6.46294C 98.223 6.98826 99.3777 7.54556 100.514 8.13372L 100.974 7.24565ZM 93.8556 4.05579C 92.6438 3.5929 91.4156 3.16293 90.1723 2.76697L 89.8689 3.71982C 91.0942 4.11004 92.3045 4.53378 93.4988 4.98996L 93.8556 4.05579ZM 86.4215 1.68828C 85.1671 1.36563 83.8991 1.0771 82.6183 0.82374L 82.4243 1.80473C 83.6865 2.05443 84.9362 2.33878 86.1724 2.65676L 86.4215 1.68828ZM 78.7724 0.174807C 77.4911 -0.00451112 76.1987 -0.148914 74.8961 -0.257412L 74.8131 0.739137C 76.0971 0.846084 77.371 0.988418 78.6338 1.16516L 78.7724 0.174807ZM 71.0017 -0.473032C 70.352 -0.490972 69.7001 -0.5 69.0461 -0.5L 69.0461 0.5C 69.6909 0.5 70.3336 0.508901 70.9741 0.526587L 71.0017 -0.473032ZM 69.0461 -0.5C 68.3921 -0.5 67.7402 -0.490972 67.0906 -0.473033L 67.1182 0.526586C 67.7587 0.508901 68.4013 0.5 69.0461 0.5L 69.0461 -0.5ZM 63.1961 -0.257416C 61.8935 -0.148918 60.6011 -0.00451633 59.3198 0.174801L 59.4584 1.16515C 60.7213 0.988412 61.9952 0.84608 63.2791 0.739133L 63.1961 -0.257416ZM 55.4739 0.823733C 54.1932 1.0771 52.9251 1.36563 51.6707 1.68827L 51.9198 2.65675C 53.156 2.33878 54.4058 2.05442 55.668 1.80472L 55.4739 0.823733ZM 47.9199 2.76697C 46.6766 3.16292 45.4484 3.59289 44.2366 4.05578L 44.5934 4.98995C 45.7877 4.53377 46.998 4.11003 48.2233 3.71981L 47.9199 2.76697ZM 40.6324 5.55038C 39.4431 6.08341 38.2715 6.64887 37.1186 7.24564L 37.5784 8.1337C 38.7145 7.54555 39.8693 6.98825 41.0414 6.46293L 40.6324 5.55038ZM 33.706 9.13574C 32.585 9.7984 31.4842 10.4916 30.4049 11.2143L 30.9612 12.0452C 32.0251 11.333 33.11 10.6497 34.2149 9.99657L 33.706 9.13574ZM 27.225 13.4745C 26.1856 14.2579 25.169 15.0698 24.1762 15.909L 24.8217 16.6727C 25.8003 15.8455 26.8024 15.0452 27.8269 14.2731L 27.225 13.4745ZM 21.2681 18.5095C 20.3231 19.4032 19.4032 20.3231 18.5095 21.2681L 19.2361 21.9552C 20.117 21.0237 21.0238 20.117 21.9552 19.2361L 21.2681 18.5095ZM 15.909 24.1762C 15.0698 25.169 14.2579 26.1856 13.4745 27.2249L 14.2731 27.8268C 15.0453 26.8024 15.8455 25.8003 16.6727 24.8217L 15.909 24.1762ZM 11.2143 30.4048C 10.4916 31.4842 9.79842 32.585 9.13575 33.706L 9.99659 34.2148C 10.6497 33.11 11.333 32.0251 12.0452 30.9612L 11.2143 30.4048ZM 7.24565 37.1186C 6.64889 38.2714 6.08342 39.4431 5.55039 40.6324L 6.46294 41.0414C 6.98826 39.8692 7.54556 38.7145 8.13372 37.5783L 7.24565 37.1186ZM 4.05579 44.2366C 3.5929 45.4484 3.16293 46.6765 2.76697 47.9198L 3.71982 48.2233C 4.11004 46.998 4.53378 45.7877 4.98996 44.5934L 4.05579 44.2366ZM 1.68828 51.6707C 1.36563 52.9251 1.0771 54.1931 0.82374 55.4739L 1.80473 55.6679C 2.05443 54.4057 2.33878 53.156 2.65676 51.9198L 1.68828 51.6707ZM 0.174807 59.3198C -0.00451112 60.6011 -0.148914 61.8935 -0.257412 63.1961L 0.739137 63.2791C 0.846084 61.9951 0.988418 60.7212 1.16516 59.4584L 0.174807 59.3198ZM -0.473032 67.0905C -0.490972 67.7402 -0.5 68.3921 -0.5 69.0461L 0.5 69.0461C 0.5 68.4013 0.508901 67.7586 0.526587 67.1181L -0.473032 67.0905ZM -0.5 69.0461C -0.5 69.7001 -0.490972 70.352 -0.473033 71.0016L 0.526586 70.974C 0.508901 70.3335 0.5 69.6909 0.5 69.0461L -0.5 69.0461ZM -0.257416 74.896C -0.148918 76.1987 -0.00451633 77.4911 0.174801 78.7724L 1.16515 78.6338C 0.988412 77.3709 0.84608 76.097 0.739133 74.813L -0.257416 74.896ZM 0.823733 82.6183C 1.0771 83.899 1.36563 85.1671 1.68827 86.4215L 2.65675 86.1724C 2.33878 84.9362 2.05442 83.6864 1.80472 82.4242L 0.823733 82.6183ZM 2.76697 90.1723C 3.16292 91.4156 3.59289 92.6437 4.05578 93.8556L 4.98995 93.4988C 4.53377 92.3045 4.11003 91.0941 3.71981 89.8689L 2.76697 90.1723ZM 5.55038 97.4597C 6.08341 98.6491 6.64887 99.8207 7.24564 100.974L 8.1337 100.514C 7.54555 99.3776 6.98825 98.2229 6.46293 97.0508L 5.55038 97.4597ZM 9.13574 104.386C 9.7984 105.507 10.4916 106.608 11.2143 107.687L 12.0452 107.131C 11.333 106.067 10.6497 104.982 9.99657 103.877L 9.13574 104.386ZM 13.4745 110.867C 14.2579 111.907 15.0698 112.923 15.909 113.916L 16.6727 113.27C 15.8455 112.292 15.0452 111.29 14.2731 110.265L 13.4745 110.867ZM 18.5095 116.824C 19.4032 117.769 20.3231 118.689 21.2681 119.583L 21.9552 118.856C 21.0237 117.975 20.117 117.068 19.2361 116.137L 18.5095 116.824ZM 24.1762 122.183C 25.169 123.022 26.1856 123.834 27.2249 124.618L 27.8268 123.819C 26.8024 123.047 25.8003 122.247 24.8217 121.42L 24.1762 122.183ZM 30.4048 126.878C 31.4842 127.601 32.585 128.294 33.706 128.956L 34.2148 128.096C 33.11 127.442 32.0251 126.759 30.9612 126.047L 30.4048 126.878ZM 37.1186 130.847C 38.2714 131.443 39.4431 132.009 40.6324 132.542L 41.0414 131.629C 39.8692 131.104 38.7145 130.547 37.5783 129.958L 37.1186 130.847ZM 44.2366 134.036C 45.4484 134.499 46.6765 134.929 47.9198 135.325L 48.2233 134.372C 46.998 133.982 45.7877 133.558 44.5934 133.102L 44.2366 134.036ZM 51.6707 136.404C 52.9251 136.727 54.1931 137.015 55.4739 137.268L 55.6679 136.287C 54.4057 136.038 53.156 135.753 51.9198 135.435L 51.6707 136.404ZM 59.3198 137.917C 60.6011 138.097 61.8935 138.241 63.1961 138.35L 63.2791 137.353C 61.9951 137.246 60.7212 137.104 59.4584 136.927L 59.3198 137.917ZM 67.0905 138.565C 67.7402 138.583 68.3921 138.592 69.0461 138.592L 69.0461 137.592C 68.4013 137.592 67.7586 137.583 67.1181 137.566L 67.0905 138.565ZM 69.0461 138.592C 69.7001 138.592 70.352 138.583 71.0016 138.565L 70.974 137.566C 70.3335 137.583 69.6909 137.592 69.0461 137.592L 69.0461 138.592ZM 74.896 138.35C 76.1987 138.241 77.4911 138.097 78.7724 137.917L 78.6338 136.927C 77.3709 137.104 76.097 137.246 74.813 137.353L 74.896 138.35ZM 82.6183 137.268C 83.899 137.015 85.1671 136.727 86.4215 136.404L 86.1724 135.435C 84.9362 135.753 83.6864 136.038 82.4242 136.287L 82.6183 137.268ZM 90.1723 135.325C 91.4156 134.929 92.6437 134.499 93.8556 134.036L 93.4988 133.102C 92.3045 133.558 91.0941 133.982 89.8689 134.372L 90.1723 135.325ZM 97.4597 132.542C 98.6491 132.009 99.8207 131.443 100.974 130.847L 100.514 129.958C 99.3776 130.547 98.2229 131.104 97.0508 131.629L 97.4597 132.542ZM 104.386 128.956C 105.507 128.294 106.608 127.601 107.687 126.878L 107.131 126.047C 106.067 126.759 104.982 127.442 103.877 128.096L 104.386 128.956ZM 110.867 124.618C 111.907 123.834 112.923 123.022 113.916 122.183L 113.27 121.42C 112.292 122.247 111.29 123.047 110.265 123.819L 110.867 124.618ZM 116.824 119.583C 117.769 118.689 118.689 117.769 119.583 116.824L 118.856 116.137C 117.975 117.068 117.068 117.975 116.137 118.856L 116.824 119.583ZM 122.183 113.916C 123.022 112.923 123.834 111.907 124.618 110.867L 123.819 110.265C 123.047 111.29 122.247 112.292 121.42 113.27L 122.183 113.916ZM 126.878 107.687C 127.601 106.608 128.294 105.507 128.956 104.386L 128.096 103.877C 127.442 104.982 126.759 106.067 126.047 107.131L 126.878 107.687ZM 130.847 100.974C 131.443 99.8208 132.009 98.6491 132.542 97.4598L 131.629 97.0508C 131.104 98.223 130.547 99.3777 129.958 100.514L 130.847 100.974ZM 134.036 93.8556C 134.499 92.6438 134.929 91.4156 135.325 90.1723L 134.372 89.8689C 133.982 91.0942 133.558 92.3045 133.102 93.4988L 134.036 93.8556ZM 136.404 86.4215C 136.727 85.1671 137.015 83.8991 137.268 82.6183L 136.287 82.4243C 136.038 83.6865 135.753 84.9362 135.435 86.1724L 136.404 86.4215ZM 137.917 78.7724C 138.097 77.4911 138.241 76.1987 138.35 74.8961L 137.353 74.8131C 137.246 76.0971 137.104 77.371 136.927 78.6338L 137.917 78.7724ZM 138.565 71.0017C 138.583 70.352 138.592 69.7001 138.592 69.0461L 137.592 69.0461C 137.592 69.6909 137.583 70.3336 137.566 70.9741L 138.565 71.0017ZM 139.092 69.0461C 139.092 68.3875 139.083 67.731 139.065 67.0768L 137.066 67.132C 137.083 67.7679 137.092 68.4059 137.092 69.0461L 139.092 69.0461ZM 138.848 63.1546C 138.739 61.8427 138.593 60.541 138.413 59.2505L 136.432 59.5277C 136.607 60.7813 136.749 62.046 136.855 63.3207L 138.848 63.1546ZM 137.759 55.3769C 137.504 54.0869 137.213 52.8096 136.888 51.5461L 134.951 52.0443C 135.267 53.2715 135.549 54.512 135.797 55.765L 137.759 55.3769ZM 135.802 47.7681C 135.403 46.5158 134.97 45.2788 134.503 44.0582L 132.635 44.7718C 133.088 45.9574 133.509 47.1588 133.896 48.3751L 135.802 47.7681ZM 132.998 40.428C 132.461 39.23 131.892 38.0499 131.291 36.8888L 129.514 37.8082C 130.098 38.9361 130.652 40.0824 131.173 41.2459L 132.998 40.428ZM 129.387 33.4515C 128.719 32.3225 128.021 31.2138 127.293 30.1267L 125.631 31.2393C 126.339 32.2955 127.017 33.3725 127.665 34.4693L 129.387 33.4515ZM 125.017 26.924C 124.228 25.8772 123.41 24.8533 122.565 23.8534L 121.038 25.1445C 121.859 26.116 122.653 27.1108 123.42 28.1278L 125.017 26.924ZM 119.946 20.9245C 119.046 19.9728 118.119 19.0463 117.168 18.1463L 115.793 19.5993C 116.718 20.4739 117.618 21.3741 118.493 22.2988L 119.946 20.9245ZM 114.239 15.5271C 113.239 14.6819 112.215 13.8642 111.168 13.0752L 109.964 14.6724C 110.981 15.4389 111.976 16.2334 112.948 17.0545L 114.239 15.5271ZM 107.966 10.7988C 106.878 10.071 105.77 9.37276 104.641 8.70533L 103.623 10.427C 104.72 11.0754 105.797 11.7536 106.853 12.4607L 107.966 10.7988ZM 101.203 6.80162C 100.042 6.20055 98.8622 5.63101 97.6643 5.09412L 96.8463 6.91921C 98.0099 7.44068 99.1561 7.9939 100.284 8.57775L 101.203 6.80162ZM 94.034 3.5887C 92.8134 3.12246 91.5764 2.68938 90.3241 2.29055L 89.7172 4.19624C 90.9334 4.58359 92.1349 5.00422 93.3204 5.45705L 94.034 3.5887ZM 86.5461 1.20404C 85.2826 0.879058 84.0053 0.588442 82.7154 0.333246L 82.3272 2.29522C 83.5802 2.54309 84.8207 2.82536 86.0479 3.141L 86.5461 1.20404ZM 78.8417 -0.320367C 77.5512 -0.500975 76.2495 -0.646413 74.9376 -0.755687L 74.7716 1.23741C 76.0463 1.34358 77.3109 1.48488 78.5645 1.66033L 78.8417 -0.320367ZM 71.0155 -0.972841C 70.3612 -0.990908 69.7047 -1 69.0461 -1L 69.0461 1C 69.6863 1 70.3244 1.00884 70.9603 1.0264L 71.0155 -0.972841ZM 69.0461 -1C 68.3875 -1 67.731 -0.990909 67.0768 -0.972843L 67.132 1.0264C 67.7679 1.00884 68.4059 1 69.0461 1L 69.0461 -1ZM 63.1546 -0.75569C 61.8427 -0.646418 60.541 -0.500981 59.2505 -0.320373L 59.5277 1.66032C 60.7813 1.48488 62.046 1.34358 63.3207 1.23741L 63.1546 -0.75569ZM 55.3769 0.333239C 54.0869 0.588434 52.8096 0.87905 51.5461 1.20403L 52.0443 3.14099C 53.2715 2.82535 54.512 2.54309 55.765 2.29521L 55.3769 0.333239ZM 47.7681 2.29054C 46.5158 2.68937 45.2788 3.12245 44.0582 3.58869L 44.7718 5.45704C 45.9574 5.00421 47.1588 4.58358 48.3751 4.19623L 47.7681 2.29054ZM 40.428 5.09411C 39.23 5.63099 38.0499 6.20054 36.8888 6.80161L 37.8082 8.57774C 38.9361 7.99388 40.0824 7.44067 41.2459 6.9192L 40.428 5.09411ZM 33.4515 8.70532C 32.3225 9.37275 31.2138 10.071 30.1267 10.7988L 31.2393 12.4607C 32.2955 11.7536 33.3725 11.0754 34.4693 10.427L 33.4515 8.70532ZM 26.924 13.0752C 25.8772 13.8642 24.8533 14.6819 23.8534 15.5271L 25.1445 17.0545C 26.116 16.2333 27.1108 15.4389 28.1278 14.6723L 26.924 13.0752ZM 20.9245 18.1462C 19.9728 19.0463 19.0463 19.9728 18.1463 20.9245L 19.5993 22.2988C 20.4739 21.3741 21.3741 20.4739 22.2988 19.5993L 20.9245 18.1462ZM 15.5271 23.8534C 14.6819 24.8533 13.8642 25.8772 13.0752 26.924L 14.6724 28.1278C 15.4389 27.1108 16.2334 26.116 17.0545 25.1445L 15.5271 23.8534ZM 10.7988 30.1267C 10.071 31.2138 9.37276 32.3225 8.70533 33.4515L 10.427 34.4693C 11.0754 33.3725 11.7536 32.2955 12.4607 31.2393L 10.7988 30.1267ZM 6.80162 36.8888C 6.20055 38.0499 5.63101 39.23 5.09412 40.4279L 6.91921 41.2459C 7.44068 40.0823 7.9939 38.9361 8.57775 37.8082L 6.80162 36.8888ZM 3.5887 44.0582C 3.12246 45.2788 2.68938 46.5158 2.29055 47.7681L 4.19624 48.375C 4.58359 47.1588 5.00422 45.9573 5.45705 44.7718L 3.5887 44.0582ZM 1.20404 51.5461C 0.879058 52.8096 0.588442 54.0868 0.333246 55.3768L 2.29522 55.765C 2.54309 54.512 2.82536 53.2715 3.141 52.0443L 1.20404 51.5461ZM -0.320367 59.2505C -0.500975 60.541 -0.646413 61.8427 -0.755687 63.1546L 1.23741 63.3206C 1.34358 62.0459 1.48488 60.7813 1.66033 59.5277L -0.320367 59.2505ZM -0.972841 67.0767C -0.990908 67.731 -1 68.3875 -1 69.0461L 1 69.0461C 1 68.4059 1.00884 67.7678 1.0264 67.1319L -0.972841 67.0767ZM -1 69.0461C -1 69.7047 -0.990909 70.3612 -0.972843 71.0154L 1.0264 70.9602C 1.00884 70.3243 1 69.6863 1 69.0461L -1 69.0461ZM -0.75569 74.9376C -0.646418 76.2495 -0.500981 77.5512 -0.320373 78.8417L 1.66032 78.5645C 1.48488 77.3109 1.34358 76.0462 1.23741 74.7715L -0.75569 74.9376ZM 0.333239 82.7153C 0.588434 84.0053 0.87905 85.2826 1.20403 86.5461L 3.14099 86.0479C 2.82535 84.8207 2.54309 83.5802 2.29521 82.3272L 0.333239 82.7153ZM 2.29054 90.324C 2.68937 91.5764 3.12245 92.8134 3.58869 94.034L 5.45704 93.3204C 5.00421 92.1348 4.58358 90.9334 4.19623 89.7171L 2.29054 90.324ZM 5.09411 97.6642C 5.63099 98.8622 6.20054 100.042 6.80161 101.203L 8.57774 100.284C 7.99388 99.1561 7.44067 98.0098 6.9192 96.8463L 5.09411 97.6642ZM 8.70532 104.641C 9.37275 105.77 10.071 106.878 10.7988 107.966L 12.4607 106.853C 11.7536 105.797 11.0754 104.72 10.427 103.623L 8.70532 104.641ZM 13.0752 111.168C 13.8642 112.215 14.6819 113.239 15.5271 114.239L 17.0545 112.948C 16.2333 111.976 15.4389 110.981 14.6723 109.964L 13.0752 111.168ZM 18.1462 117.168C 19.0463 118.119 19.9728 119.046 20.9245 119.946L 22.2988 118.493C 21.3741 117.618 20.4739 116.718 19.5993 115.793L 18.1462 117.168ZM 23.8534 122.565C 24.8533 123.41 25.8772 124.228 26.924 125.017L 28.1278 123.42C 27.1108 122.653 26.116 121.859 25.1445 121.038L 23.8534 122.565ZM 30.1267 127.293C 31.2138 128.021 32.3225 128.719 33.4515 129.387L 34.4693 127.665C 33.3725 127.017 32.2955 126.339 31.2393 125.631L 30.1267 127.293ZM 36.8888 131.291C 38.0499 131.892 39.23 132.461 40.4279 132.998L 41.2459 131.173C 40.0823 130.652 38.9361 130.098 37.8082 129.514L 36.8888 131.291ZM 44.0582 134.503C 45.2788 134.97 46.5158 135.403 47.7681 135.802L 48.375 133.896C 47.1588 133.509 45.9573 133.088 44.7718 132.635L 44.0582 134.503ZM 51.5461 136.888C 52.8096 137.213 54.0868 137.504 55.3768 137.759L 55.765 135.797C 54.512 135.549 53.2715 135.267 52.0443 134.951L 51.5461 136.888ZM 59.2505 138.413C 60.541 138.593 61.8427 138.739 63.1546 138.848L 63.3206 136.855C 62.0459 136.749 60.7813 136.607 59.5277 136.432L 59.2505 138.413ZM 67.0767 139.065C 67.731 139.083 68.3875 139.092 69.0461 139.092L 69.0461 137.092C 68.4059 137.092 67.7678 137.083 67.1319 137.066L 67.0767 139.065ZM 69.0461 139.092C 69.7047 139.092 70.3612 139.083 71.0154 139.065L 70.9602 137.066C 70.3243 137.083 69.6863 137.092 69.0461 137.092L 69.0461 139.092ZM 74.9376 138.848C 76.2495 138.739 77.5512 138.593 78.8417 138.413L 78.5645 136.432C 77.3109 136.607 76.0462 136.749 74.7715 136.855L 74.9376 138.848ZM 82.7153 137.759C 84.0053 137.504 85.2826 137.213 86.5461 136.888L 86.0479 134.951C 84.8207 135.267 83.5802 135.549 82.3272 135.797L 82.7153 137.759ZM 90.324 135.802C 91.5764 135.403 92.8134 134.97 94.034 134.503L 93.3204 132.635C 92.1348 133.088 90.9334 133.509 89.7171 133.896L 90.324 135.802ZM 97.6642 132.998C 98.8622 132.461 100.042 131.892 101.203 131.291L 100.284 129.514C 99.1561 130.098 98.0098 130.652 96.8463 131.173L 97.6642 132.998ZM 104.641 129.387C 105.77 128.719 106.878 128.021 107.966 127.293L 106.853 125.631C 105.797 126.339 104.72 127.017 103.623 127.665L 104.641 129.387ZM 111.168 125.017C 112.215 124.228 113.239 123.41 114.239 122.565L 112.948 121.038C 111.976 121.859 110.981 122.653 109.964 123.42L 111.168 125.017ZM 117.168 119.946C 118.119 119.046 119.046 118.119 119.946 117.168L 118.493 115.793C 117.618 116.718 116.718 117.618 115.793 118.493L 117.168 119.946ZM 122.565 114.239C 123.41 113.239 124.228 112.215 125.017 111.168L 123.42 109.964C 122.653 110.981 121.859 111.976 121.038 112.948L 122.565 114.239ZM 127.293 107.966C 128.021 106.878 128.719 105.77 129.387 104.641L 127.665 103.623C 127.017 104.72 126.339 105.797 125.631 106.853L 127.293 107.966ZM 131.291 101.203C 131.892 100.042 132.461 98.8622 132.998 97.6643L 131.173 96.8463C 130.652 98.0099 130.098 99.1561 129.514 100.284L 131.291 101.203ZM 134.503 94.034C 134.97 92.8134 135.403 91.5764 135.802 90.3241L 133.896 89.7172C 133.509 90.9334 133.088 92.1349 132.635 93.3204L 134.503 94.034ZM 136.888 86.5461C 137.213 85.2826 137.504 84.0053 137.759 82.7154L 135.797 82.3272C 135.549 83.5802 135.267 84.8207 134.951 86.0479L 136.888 86.5461ZM 138.413 78.8417C 138.593 77.5512 138.739 76.2495 138.848 74.9376L 136.855 74.7716C 136.749 76.0463 136.607 77.3109 136.432 78.5645L 138.413 78.8417ZM 139.065 71.0155C 139.083 70.3612 139.092 69.7047 139.092 69.0461L 137.092 69.0461C 137.092 69.6863 137.083 70.3244 137.066 70.9603L 139.065 71.0155Z"/>
        <path id="path10_stroke" d="M 44.4704 -0.5C 43.8126 -0.5 43.1581 -0.485875 42.5072 -0.45791L 42.5501 0.541169C 43.1868 0.513817 43.8269 0.5 44.4704 0.5L 44.4704 -0.5ZM 38.5975 -0.119923C 37.291 0.0504946 36.0021 0.276995 34.7333 0.557088L 34.9488 1.53358C 36.1893 1.25975 37.4494 1.0383 38.7268 0.871676L 38.5975 -0.119923ZM 30.9436 1.57012C 29.6898 1.96506 28.4598 2.41344 27.2561 2.91257L 27.6392 3.8363C 28.8159 3.34833 30.0184 2.91 31.244 2.52392L 30.9436 1.57012ZM 23.7008 4.57325C 22.538 5.17981 21.405 5.83569 20.3047 6.53812L 20.8428 7.38101C 21.9187 6.69418 23.0264 6.0529 24.1633 5.45987L 23.7008 4.57325ZM 17.0929 8.79114C 16.0547 9.58891 15.0524 10.431 14.0887 11.3145L 14.7645 12.0516C 15.7069 11.1876 16.687 10.3642 17.7022 9.58406L 17.0929 8.79114ZM 11.3145 14.0887C 10.431 15.0524 9.58891 16.0547 8.79114 17.0929L 9.58406 17.7022C 10.3642 16.687 11.1876 15.7069 12.0516 14.7645L 11.3145 14.0887ZM 6.53812 20.3047C 5.83569 21.405 5.1798 22.538 4.57325 23.7008L 5.45987 24.1633C 6.0529 23.0264 6.69418 21.9187 7.38101 20.8428L 6.53812 20.3047ZM 2.91257 27.2561C 2.41343 28.4598 1.96506 29.6898 1.57012 30.9436L 2.52391 31.244C 2.91 30.0184 3.34833 28.8159 3.8363 27.6392L 2.91257 27.2561ZM 0.557086 34.7333C 0.276993 36.0021 0.0504932 37.291 -0.119924 38.5975L 0.871675 38.7268C 1.0383 37.4494 1.25975 36.1893 1.53358 34.9488L 0.557086 34.7333ZM -0.45791 42.5072C -0.485875 43.1581 -0.5 43.8126 -0.5 44.4704L 0.5 44.4704C 0.5 43.8269 0.513817 43.1868 0.541168 42.5501L -0.45791 42.5072ZM -0.5 44.4704C -0.5 45.1281 -0.485875 45.7826 -0.45791 46.4335L 0.541169 46.3906C 0.513817 45.754 0.5 45.1138 0.5 44.4704L -0.5 44.4704ZM -0.119923 50.3433C 0.0504946 51.6498 0.276995 52.9387 0.557088 54.2075L 1.53358 53.9919C 1.25975 52.7515 1.0383 51.4914 0.871676 50.2139L -0.119923 50.3433ZM 1.57012 57.9972C 1.96506 59.2509 2.41344 60.481 2.91257 61.6846L 3.8363 61.3016C 3.34833 60.1248 2.91 58.9224 2.52392 57.6967L 1.57012 57.9972ZM 4.57325 65.24C 5.17981 66.4028 5.83569 67.5357 6.53812 68.636L 7.38101 68.098C 6.69418 67.0221 6.0529 65.9143 5.45987 64.7775L 4.57325 65.24ZM 8.79114 71.8479C 9.58891 72.886 10.431 73.8883 11.3145 74.852L 12.0516 74.1762C 11.1876 73.2339 10.3642 72.2537 9.58406 71.2386L 8.79114 71.8479ZM 14.0887 77.6263C 15.0524 78.5098 16.0547 79.3518 17.0928 80.1496L 17.7022 79.3567C 16.687 78.5766 15.7069 77.7532 14.7645 76.8892L 14.0887 77.6263ZM 20.3047 82.4026C 21.405 83.105 22.538 83.7609 23.7008 84.3675L 24.1633 83.4809C 23.0264 82.8878 21.9187 82.2466 20.8428 81.5597L 20.3047 82.4026ZM 27.2561 86.0282C 28.4598 86.5273 29.6898 86.9757 30.9436 87.3706L 31.244 86.4168C 30.0184 86.0307 28.8159 85.5924 27.6392 85.1044L 27.2561 86.0282ZM 34.7333 88.3837C 36.0021 88.6637 37.291 88.8902 38.5974 89.0607L 38.7268 88.0691C 37.4494 87.9024 36.1892 87.681 34.9488 87.4072L 34.7333 88.3837ZM 42.5072 89.3987C 43.1581 89.4266 43.8126 89.4407 44.4704 89.4407L 44.4704 88.4407C 43.8269 88.4407 43.1867 88.4269 42.5501 88.3996L 42.5072 89.3987ZM 44.4704 -1C 43.8055 -1 43.1438 -0.985722 42.4857 -0.957449L 42.5716 1.04071C 43.2011 1.01366 43.8341 1 44.4704 1L 44.4704 -1ZM 38.5328 -0.615723C 37.2118 -0.44341 35.9085 -0.214385 34.6255 0.0688433L 35.0566 2.02182C 36.2828 1.75113 37.5286 1.53221 38.7915 1.36748L 38.5328 -0.615723ZM 30.7933 1.09322C 29.5255 1.49259 28.2817 1.94599 27.0646 2.45071L 27.8307 4.29816C 28.994 3.81578 30.1827 3.38248 31.3943 3.00081L 30.7933 1.09322ZM 23.4695 4.12994C 22.2938 4.74326 21.1482 5.40644 20.0357 6.11668L 21.1118 7.80245C 22.1755 7.12343 23.2706 6.48945 24.3945 5.90319L 23.4695 4.12994ZM 16.7882 8.39468C 15.7386 9.20128 14.7252 10.0526 13.7508 10.9459L 15.1024 12.4201C 16.0341 11.5659 17.0032 10.7518 18.0068 9.98052L 16.7882 8.39468ZM 10.9459 13.7508C 10.0526 14.7252 9.20128 15.7386 8.39468 16.7882L 9.98052 18.0068C 10.7518 17.0032 11.5659 16.0341 12.4201 15.1024L 10.9459 13.7508ZM 6.11667 20.0357C 5.40644 21.1482 4.74326 22.2938 4.12994 23.4695L 5.90318 24.3945C 6.48945 23.2706 7.12343 22.1755 7.80245 21.1118L 6.11667 20.0357ZM 2.45071 27.0646C 1.94598 28.2817 1.49259 29.5256 1.09322 30.7934L 3.00081 31.3943C 3.38247 30.1827 3.81578 28.994 4.29816 27.8307L 2.45071 27.0646ZM 0.0688405 34.6255C -0.214387 35.9085 -0.443412 37.2118 -0.615724 38.5328L 1.36748 38.7915C 1.53221 37.5286 1.75113 36.2828 2.02182 35.0566L 0.0688405 34.6255ZM -0.95745 42.4857C -0.985722 43.1438 -1 43.8055 -1 44.4704L 1 44.4704C 1 43.8341 1.01366 43.2011 1.04071 42.5716L -0.95745 42.4857ZM -1 44.4704C -1 45.1353 -0.985722 45.7969 -0.957449 46.455L 1.04071 46.3692C 1.01366 45.7397 1 45.1066 1 44.4704L -1 44.4704ZM -0.615723 50.408C -0.44341 51.729 -0.214385 53.0322 0.0688433 54.3153L 2.02182 53.8841C 1.75113 52.6579 1.53221 51.4122 1.36748 50.1493L -0.615723 50.408ZM 1.09322 58.1474C 1.49259 59.4152 1.94599 60.659 2.45071 61.8761L 4.29816 61.11C 3.81578 59.9468 3.38248 58.7581 3.00081 57.5465L 1.09322 58.1474ZM 4.12994 65.4712C 4.74326 66.647 5.40644 67.7925 6.11668 68.9051L 7.80245 67.8289C 7.12343 66.7653 6.48945 65.6701 5.90319 64.5462L 4.12994 65.4712ZM 8.39468 72.1525C 9.20128 73.2022 10.0526 74.2156 10.9459 75.1899L 12.4201 73.8383C 11.5659 72.9066 10.7518 71.9376 9.98052 70.9339L 8.39468 72.1525ZM 13.7508 77.9948C 14.7252 78.8881 15.7386 79.7395 16.7882 80.5461L 18.0068 78.9602C 17.0032 78.1889 16.0341 77.3748 15.1024 76.5206L 13.7508 77.9948ZM 20.0356 82.8241C 21.1482 83.5343 22.2937 84.1975 23.4695 84.8108L 24.3945 83.0376C 23.2706 82.4513 22.1755 81.8173 21.1118 81.1383L 20.0356 82.8241ZM 27.0646 86.49C 28.2817 86.9948 29.5255 87.4482 30.7933 87.8475L 31.3942 85.9399C 30.1826 85.5583 28.9939 85.125 27.8307 84.6426L 27.0646 86.49ZM 34.6255 88.8719C 35.9085 89.1551 37.2118 89.3841 38.5328 89.5565L 38.7915 87.5733C 37.5286 87.4085 36.2828 87.1896 35.0566 86.9189L 34.6255 88.8719ZM 42.4857 89.8982C 43.1438 89.9265 43.8055 89.9407 44.4704 89.9407L 44.4704 87.9407C 43.8341 87.9407 43.2011 87.9271 42.5716 87.9L 42.4857 89.8982Z"/>
        <path id="path11_fill" d="M 186 93C 186 144.362 144.362 186 93 186C 41.6375 186 0 144.362 0 93C 0 41.6375 41.6375 0 93 0C 144.362 0 186 41.6375 186 93Z"/>
        <path id="path12_stroke_2x" d="M 186.5 93C 186.5 92.3161 186.493 91.634 186.478 90.9536L 185.478 90.9751C 185.493 91.6483 185.5 92.3233 185.5 93L 186.5 93ZM 186.303 86.8794C 186.215 85.5172 186.098 84.1629 185.952 82.8171L 184.958 82.9248C 185.102 84.2562 185.218 85.5961 185.305 86.9439L 186.303 86.8794ZM 185.425 78.7738C 185.218 77.4238 184.984 76.0833 184.72 74.7529L 183.739 74.947C 184 76.263 184.232 77.5891 184.436 78.9247L 185.425 78.7738ZM 183.841 70.7678C 183.517 69.4425 183.166 68.1283 182.787 66.8259L 181.827 67.1053C 182.202 68.3937 182.549 69.6937 182.869 71.0047L 183.841 70.7678ZM 181.561 62.9345C 181.123 61.6438 180.657 60.3657 180.165 59.1011L 179.233 59.4637C 179.72 60.7148 180.181 61.9791 180.614 63.2559L 181.561 62.9345ZM 178.603 55.3328C 178.053 54.0863 177.478 52.854 176.876 51.6367L 175.98 52.0797C 176.575 53.2839 177.144 54.5029 177.688 55.736L 178.603 55.3328ZM 174.99 48.0198C 174.334 46.8267 173.652 45.6495 172.947 44.4888L 172.092 45.0084C 172.79 46.1566 173.464 47.3213 174.113 48.5016L 174.99 48.0198ZM 170.751 41.0496C 169.994 39.9185 169.213 38.8049 168.408 37.7094L 167.602 38.3014C 168.398 39.3851 169.171 40.4869 169.92 41.6059L 170.751 41.0496ZM 165.922 34.4744C 165.07 33.4139 164.195 32.3724 163.298 31.3506L 162.547 32.0102C 163.434 33.0212 164.299 34.0516 165.143 35.1009L 165.922 34.4744ZM 160.541 28.3435C 159.601 27.3612 158.639 26.3994 157.656 25.4588L 156.965 26.1811C 157.937 27.1117 158.888 28.0633 159.819 29.0351L 160.541 28.3435ZM 154.649 22.7019C 153.628 21.8051 152.586 20.9302 151.526 20.0779L 150.899 20.8574C 151.948 21.7006 152.979 22.5662 153.99 23.4535L 154.649 22.7019ZM 148.291 17.592C 147.195 16.7874 146.081 16.0062 144.95 15.2489L 144.394 16.0799C 145.513 16.8291 146.615 17.602 147.699 18.398L 148.291 17.592ZM 141.511 13.0534C 140.351 12.3477 139.173 11.6664 137.98 11.0105L 137.498 11.8868C 138.679 12.5357 139.843 13.2096 140.992 13.9079L 141.511 13.0534ZM 134.363 9.12385C 133.146 8.52242 131.914 7.9467 130.667 7.39741L 130.264 8.3125C 131.497 8.85588 132.716 9.42541 133.92 10.0204L 134.363 9.12385ZM 126.899 5.83473C 125.634 5.34254 124.356 4.87707 123.065 4.43903L 122.744 5.38598C 124.021 5.8193 125.285 6.27975 126.536 6.76664L 126.899 5.83473ZM 119.174 3.21312C 117.872 2.83407 116.557 2.4826 115.232 2.15937L 114.995 3.13089C 116.306 3.45064 117.606 3.79832 118.895 4.17328L 119.174 3.21312ZM 111.247 1.27967C 109.917 1.01649 108.576 0.781523 107.226 0.575432L 107.075 1.56398C 108.411 1.76786 109.737 2.0003 111.053 2.26066L 111.247 1.27967ZM 103.183 0.0481545C 101.837 -0.0976138 100.483 -0.214822 99.1206 -0.302855L 99.0561 0.695064C 100.404 0.782163 101.744 0.898126 103.075 1.04234L 103.183 0.0481545ZM 95.0464 -0.478046C 94.366 -0.492657 93.6839 -0.5 93 -0.5L 93 0.5C 93.6767 0.5 94.3517 0.507266 95.0249 0.521724L 95.0464 -0.478046ZM 93 -0.5C 92.3161 -0.5 91.634 -0.492657 90.9536 -0.478046L 90.9751 0.521724C 91.6483 0.507266 92.3233 0.5 93 0.5L 93 -0.5ZM 86.8794 -0.302856C 85.5172 -0.214823 84.1629 -0.0976148 82.8171 0.0481534L 82.9248 1.04234C 84.2562 0.898125 85.5961 0.782162 86.9439 0.695063L 86.8794 -0.302856ZM 78.7738 0.575432C 77.4238 0.781523 76.0833 1.01649 74.7529 1.27967L 74.947 2.26066C 76.263 2.0003 77.5891 1.76786 78.9247 1.56398L 78.7738 0.575432ZM 70.7678 2.15937C 69.4425 2.4826 68.1283 2.83407 66.8259 3.21312L 67.1053 4.17328C 68.3937 3.79832 69.6937 3.45063 71.0047 3.13089L 70.7678 2.15937ZM 62.9345 4.43903C 61.6438 4.87707 60.3657 5.34254 59.1011 5.83473L 59.4637 6.76664C 60.7148 6.27975 61.9791 5.8193 63.2559 5.38598L 62.9345 4.43903ZM 55.3328 7.39741C 54.0863 7.9467 52.854 8.52242 51.6367 9.12385L 52.0797 10.0204C 53.2839 9.42541 54.5029 8.85588 55.736 8.3125L 55.3328 7.39741ZM 48.0198 11.0105C 46.8267 11.6664 45.6495 12.3477 44.4888 13.0534L 45.0084 13.9079C 46.1566 13.2096 47.3213 12.5357 48.5016 11.8868L 48.0198 11.0105ZM 41.0496 15.2489C 39.9185 16.0062 38.8049 16.7874 37.7094 17.592L 38.3014 18.398C 39.3851 17.602 40.4869 16.8291 41.6059 16.0799L 41.0496 15.2489ZM 34.4744 20.0779C 33.4139 20.9302 32.3724 21.8051 31.3506 22.7019L 32.0102 23.4535C 33.0212 22.5662 34.0516 21.7006 35.1009 20.8574L 34.4744 20.0779ZM 28.3435 25.4588C 27.3612 26.3994 26.3994 27.3612 25.4588 28.3435L 26.1811 29.0351C 27.1117 28.0633 28.0633 27.1117 29.0351 26.1811L 28.3435 25.4588ZM 22.7019 31.3506C 21.8051 32.3724 20.9302 33.4139 20.0779 34.4744L 20.8574 35.1008C 21.7006 34.0516 22.5662 33.0212 23.4535 32.0102L 22.7019 31.3506ZM 17.592 37.7094C 16.7874 38.8049 16.0062 39.9185 15.2489 41.0496L 16.0799 41.6059C 16.8291 40.4869 17.602 39.3851 18.398 38.3014L 17.592 37.7094ZM 13.0534 44.4888C 12.3477 45.6495 11.6664 46.8267 11.0105 48.0198L 11.8868 48.5016C 12.5357 47.3213 13.2096 46.1566 13.9079 45.0084L 13.0534 44.4888ZM 9.12385 51.6367C 8.52242 52.854 7.9467 54.0863 7.39741 55.3328L 8.3125 55.736C 8.85588 54.5029 9.42541 53.2839 10.0204 52.0797L 9.12385 51.6367ZM 5.83473 59.1011C 5.34254 60.3657 4.87707 61.6438 4.43903 62.9345L 5.38598 63.2559C 5.8193 61.9791 6.27975 60.7148 6.76664 59.4637L 5.83473 59.1011ZM 3.21312 66.8259C 2.83407 68.1283 2.4826 69.4425 2.15937 70.7678L 3.13089 71.0047C 3.45064 69.6937 3.79832 68.3937 4.17328 67.1053L 3.21312 66.8259ZM 1.27967 74.7529C 1.01649 76.0833 0.781523 77.4238 0.575432 78.7738L 1.56398 78.9247C 1.76786 77.5891 2.0003 76.263 2.26066 74.947L 1.27967 74.7529ZM 0.0481545 82.8171C -0.0976138 84.1629 -0.214822 85.5172 -0.302855 86.8794L 0.695064 86.9439C 0.782163 85.5961 0.898126 84.2562 1.04234 82.9248L 0.0481545 82.8171ZM -0.478046 90.9536C -0.492657 91.634 -0.5 92.3161 -0.5 93L 0.5 93C 0.5 92.3233 0.507266 91.6483 0.521724 90.9751L -0.478046 90.9536ZM -0.5 93C -0.5 93.6839 -0.492657 94.366 -0.478046 95.0464L 0.521724 95.0249C 0.507266 94.3517 0.5 93.6767 0.5 93L -0.5 93ZM -0.302856 99.1206C -0.214823 100.483 -0.0976148 101.837 0.0481534 103.183L 1.04234 103.075C 0.898125 101.744 0.782162 100.404 0.695063 99.0561L -0.302856 99.1206ZM 0.575432 107.226C 0.781523 108.576 1.01649 109.917 1.27967 111.247L 2.26066 111.053C 2.0003 109.737 1.76786 108.411 1.56398 107.075L 0.575432 107.226ZM 2.15937 115.232C 2.4826 116.557 2.83407 117.872 3.21312 119.174L 4.17328 118.895C 3.79832 117.606 3.45063 116.306 3.13089 114.995L 2.15937 115.232ZM 4.43903 123.066C 4.87707 124.356 5.34254 125.634 5.83473 126.899L 6.76664 126.536C 6.27975 125.285 5.8193 124.021 5.38598 122.744L 4.43903 123.066ZM 7.39741 130.667C 7.9467 131.914 8.52242 133.146 9.12385 134.363L 10.0204 133.92C 9.42541 132.716 8.85588 131.497 8.3125 130.264L 7.39741 130.667ZM 11.0105 137.98C 11.6664 139.173 12.3477 140.351 13.0534 141.511L 13.9079 140.992C 13.2096 139.843 12.5357 138.679 11.8868 137.498L 11.0105 137.98ZM 15.2489 144.95C 16.0062 146.081 16.7874 147.195 17.592 148.291L 18.398 147.699C 17.602 146.615 16.8291 145.513 16.0799 144.394L 15.2489 144.95ZM 20.0779 151.526C 20.9302 152.586 21.8051 153.628 22.7019 154.649L 23.4535 153.99C 22.5662 152.979 21.7006 151.948 20.8574 150.899L 20.0779 151.526ZM 25.4588 157.656C 26.3994 158.639 27.3612 159.601 28.3435 160.541L 29.0351 159.819C 28.0633 158.888 27.1117 157.937 26.1811 156.965L 25.4588 157.656ZM 31.3506 163.298C 32.3724 164.195 33.4139 165.07 34.4744 165.922L 35.1008 165.143C 34.0516 164.299 33.0212 163.434 32.0102 162.547L 31.3506 163.298ZM 37.7094 168.408C 38.8049 169.213 39.9185 169.994 41.0496 170.751L 41.6059 169.92C 40.4869 169.171 39.3851 168.398 38.3014 167.602L 37.7094 168.408ZM 44.4888 172.947C 45.6495 173.652 46.8267 174.334 48.0198 174.99L 48.5016 174.113C 47.3213 173.464 46.1566 172.79 45.0084 172.092L 44.4888 172.947ZM 51.6367 176.876C 52.854 177.478 54.0863 178.053 55.3328 178.603L 55.736 177.688C 54.5029 177.144 53.2839 176.575 52.0797 175.98L 51.6367 176.876ZM 59.1011 180.165C 60.3657 180.657 61.6438 181.123 62.9345 181.561L 63.2559 180.614C 61.9791 180.181 60.7148 179.72 59.4637 179.233L 59.1011 180.165ZM 66.8259 182.787C 68.1283 183.166 69.4425 183.517 70.7678 183.841L 71.0047 182.869C 69.6937 182.549 68.3937 182.202 67.1053 181.827L 66.8259 182.787ZM 74.7529 184.72C 76.0833 184.984 77.4238 185.218 78.7738 185.425L 78.9247 184.436C 77.5891 184.232 76.263 184 74.947 183.739L 74.7529 184.72ZM 82.8171 185.952C 84.1629 186.098 85.5172 186.215 86.8794 186.303L 86.9439 185.305C 85.5961 185.218 84.2562 185.102 82.9248 184.958L 82.8171 185.952ZM 90.9536 186.478C 91.634 186.493 92.3161 186.5 93 186.5L 93 185.5C 92.3233 185.5 91.6483 185.493 90.9751 185.478L 90.9536 186.478ZM 93 186.5C 93.6839 186.5 94.366 186.493 95.0464 186.478L 95.0249 185.478C 94.3517 185.493 93.6767 185.5 93 185.5L 93 186.5ZM 99.1206 186.303C 100.483 186.215 101.837 186.098 103.183 185.952L 103.075 184.958C 101.744 185.102 100.404 185.218 99.0561 185.305L 99.1206 186.303ZM 107.226 185.425C 108.576 185.218 109.917 184.984 111.247 184.72L 111.053 183.739C 109.737 184 108.411 184.232 107.075 184.436L 107.226 185.425ZM 115.232 183.841C 116.557 183.517 117.872 183.166 119.174 182.787L 118.895 181.827C 117.606 182.202 116.306 182.549 114.995 182.869L 115.232 183.841ZM 123.066 181.561C 124.356 181.123 125.634 180.657 126.899 180.165L 126.536 179.233C 125.285 179.72 124.021 180.181 122.744 180.614L 123.066 181.561ZM 130.667 178.603C 131.914 178.053 133.146 177.478 134.363 176.876L 133.92 175.98C 132.716 176.575 131.497 177.144 130.264 177.688L 130.667 178.603ZM 137.98 174.99C 139.173 174.334 140.351 173.652 141.511 172.947L 140.992 172.092C 139.843 172.79 138.679 173.464 137.498 174.113L 137.98 174.99ZM 144.95 170.751C 146.081 169.994 147.195 169.213 148.291 168.408L 147.699 167.602C 146.615 168.398 145.513 169.171 144.394 169.92L 144.95 170.751ZM 151.526 165.922C 152.586 165.07 153.628 164.195 154.649 163.298L 153.99 162.547C 152.979 163.434 151.948 164.299 150.899 165.143L 151.526 165.922ZM 157.656 160.541C 158.639 159.601 159.601 158.639 160.541 157.656L 159.819 156.965C 158.888 157.937 157.937 158.888 156.965 159.819L 157.656 160.541ZM 163.298 154.649C 164.195 153.628 165.07 152.586 165.922 151.526L 165.143 150.899C 164.299 151.948 163.434 152.979 162.547 153.99L 163.298 154.649ZM 168.408 148.291C 169.213 147.195 169.994 146.081 170.751 144.95L 169.92 144.394C 169.171 145.513 168.398 146.615 167.602 147.699L 168.408 148.291ZM 172.947 141.511C 173.652 140.351 174.334 139.173 174.99 137.98L 174.113 137.498C 173.464 138.679 172.79 139.843 172.092 140.992L 172.947 141.511ZM 176.876 134.363C 177.478 133.146 178.053 131.914 178.603 130.667L 177.688 130.264C 177.144 131.497 176.575 132.716 175.98 133.92L 176.876 134.363ZM 180.165 126.899C 180.657 125.634 181.123 124.356 181.561 123.065L 180.614 122.744C 180.181 124.021 179.72 125.285 179.233 126.536L 180.165 126.899ZM 182.787 119.174C 183.166 117.872 183.517 116.557 183.841 115.232L 182.869 114.995C 182.549 116.306 182.202 117.606 181.827 118.895L 182.787 119.174ZM 184.72 111.247C 184.984 109.917 185.218 108.576 185.425 107.226L 184.436 107.075C 184.232 108.411 184 109.737 183.739 111.053L 184.72 111.247ZM 185.952 103.183C 186.098 101.837 186.215 100.483 186.303 99.1206L 185.305 99.0561C 185.218 100.404 185.102 101.744 184.958 103.075L 185.952 103.183ZM 186.478 95.0464C 186.493 94.366 186.5 93.6839 186.5 93L 185.5 93C 185.5 93.6767 185.493 94.3517 185.478 95.0249L 186.478 95.0464ZM 187 93C 187 92.3126 186.993 91.6268 186.978 90.9429L 184.978 90.9858C 184.993 91.6554 185 92.3269 185 93L 187 93ZM 186.802 86.8472C 186.713 85.4777 186.595 84.1162 186.449 82.7632L 184.461 82.9786C 184.604 84.3029 184.719 85.6356 184.806 86.9762L 186.802 86.8472ZM 185.919 78.6983C 185.712 77.3411 185.475 75.9934 185.211 74.6559L 183.249 75.044C 183.508 76.3529 183.739 77.6718 183.942 79.0001L 185.919 78.6983ZM 184.326 70.6493C 184.001 69.3169 183.648 67.9956 183.267 66.6861L 181.347 67.245C 181.72 68.5264 182.065 69.8194 182.383 71.1232L 184.326 70.6493ZM 182.034 62.7738C 181.594 61.4761 181.126 60.1912 180.631 58.9197L 178.767 59.6451C 179.252 60.8893 179.71 62.1467 180.141 63.4166L 182.034 62.7738ZM 179.06 55.1312C 178.508 53.8779 177.929 52.6391 177.324 51.4152L 175.531 52.3012C 176.123 53.4988 176.69 54.7112 177.23 55.9377L 179.06 55.1312ZM 175.428 47.7789C 174.768 46.5794 174.083 45.3959 173.374 44.229L 171.665 45.2682C 172.359 46.4102 173.03 47.5685 173.675 48.7425L 175.428 47.7789ZM 171.167 40.7714C 170.405 39.6343 169.62 38.5147 168.811 37.4134L 167.199 38.5973C 167.991 39.6753 168.76 40.7711 169.505 41.8841L 171.167 40.7714ZM 166.312 34.1612C 165.455 33.0951 164.576 32.048 163.674 31.0207L 162.171 32.34C 163.053 33.3455 163.914 34.3705 164.753 35.4141L 166.312 34.1612ZM 160.902 27.9977C 159.957 27.0102 158.99 26.0433 158.002 25.0977L 156.619 26.5422C 157.586 27.4678 158.532 28.4143 159.458 29.3809L 160.902 27.9977ZM 154.979 22.3261C 153.952 21.4245 152.905 20.545 151.839 19.6882L 150.586 21.2472C 151.63 22.0858 152.654 22.9467 153.66 23.8293L 154.979 22.3261ZM 148.587 17.189C 147.485 16.3802 146.366 15.5947 145.229 14.8334L 144.116 16.4954C 145.229 17.2405 146.325 18.0093 147.403 18.801L 148.587 17.189ZM 141.771 12.6262C 140.604 11.9167 139.421 11.2318 138.221 10.5723L 137.258 12.3249C 138.431 12.9703 139.59 13.6406 140.732 14.3351L 141.771 12.6262ZM 134.585 8.67558C 133.361 8.07092 132.122 7.49211 130.869 6.93986L 130.062 8.77005C 131.289 9.31048 132.501 9.87691 133.699 10.4687L 134.585 8.67558ZM 127.08 5.36877C 125.809 4.87393 124.524 4.40596 123.226 3.96555L 122.583 5.85945C 123.853 6.29041 125.111 6.74836 126.355 7.2326L 127.08 5.36877ZM 119.314 2.73303C 118.004 2.35194 116.683 1.99858 115.351 1.6736L 114.877 3.61665C 116.181 3.93466 117.474 4.28045 118.755 4.65337L 119.314 2.73303ZM 111.344 0.78918C 110.007 0.524578 108.659 0.288354 107.302 0.0811588L 107 2.05825C 108.328 2.26103 109.647 2.49221 110.956 2.75116L 111.344 0.78918ZM 103.237 -0.448938C 101.884 -0.595484 100.522 -0.713315 99.1528 -0.801814L 99.0238 1.19402C 100.364 1.28066 101.697 1.396 103.021 1.53943L 103.237 -0.448938ZM 95.0572 -0.97793C 94.3732 -0.992619 93.6875 -1 93 -1L 93 1C 93.6731 1 94.3446 1.00723 95.0142 1.02161L 95.0572 -0.97793ZM 93 -1C 92.3126 -1 91.6268 -0.992619 90.9429 -0.977931L 90.9858 1.02161C 91.6554 1.00723 92.3269 1 93 1L 93 -1ZM 86.8472 -0.801815C 85.4777 -0.713316 84.1162 -0.595485 82.7632 -0.448939L 82.9786 1.53943C 84.3029 1.396 85.6356 1.28065 86.9762 1.19402L 86.8472 -0.801815ZM 78.6983 0.0811589C 77.3411 0.288353 75.9934 0.524577 74.6559 0.789178L 75.044 2.75115C 76.3529 2.49221 77.6718 2.26103 79.0001 2.05825L 78.6983 0.0811589ZM 70.6493 1.6736C 69.3169 1.99858 67.9956 2.35194 66.6861 2.73303L 67.245 4.65337C 68.5264 4.28045 69.8194 3.93465 71.1232 3.61665L 70.6493 1.6736ZM 62.7738 3.96555C 61.4761 4.40596 60.1912 4.87393 58.9197 5.36877L 59.6451 7.2326C 60.8893 6.74836 62.1467 6.29041 63.4166 5.85945L 62.7738 3.96555ZM 55.1312 6.93986C 53.8779 7.49211 52.6391 8.07092 51.4152 8.67558L 52.3012 10.4687C 53.4988 9.87691 54.7112 9.31048 55.9377 8.77004L 55.1312 6.93986ZM 47.7789 10.5723C 46.5794 11.2318 45.3959 11.9167 44.229 12.6262L 45.2682 14.3351C 46.4102 13.6406 47.5685 12.9703 48.7425 12.3249L 47.7789 10.5723ZM 40.7714 14.8334C 39.6343 15.5947 38.5147 16.3802 37.4134 17.189L 38.5973 18.801C 39.6753 18.0093 40.7711 17.2405 41.8841 16.4954L 40.7714 14.8334ZM 34.1612 19.6882C 33.0951 20.5449 32.048 21.4245 31.0207 22.3261L 32.34 23.8292C 33.3455 22.9467 34.3705 22.0858 35.4141 21.2472L 34.1612 19.6882ZM 27.9977 25.0977C 27.0102 26.0433 26.0433 27.0102 25.0977 27.9977L 26.5422 29.3809C 27.4678 28.4143 28.4143 27.4678 29.3809 26.5422L 27.9977 25.0977ZM 22.3261 31.0207C 21.4245 32.048 20.545 33.0951 19.6882 34.1612L 21.2472 35.414C 22.0858 34.3705 22.9467 33.3455 23.8293 32.34L 22.3261 31.0207ZM 17.189 37.4134C 16.3802 38.5147 15.5947 39.6343 14.8334 40.7714L 16.4954 41.8841C 17.2405 40.7711 18.0093 39.6753 18.801 38.5973L 17.189 37.4134ZM 12.6262 44.229C 11.9167 45.3959 11.2318 46.5794 10.5723 47.7789L 12.3249 48.7425C 12.9703 47.5685 13.6406 46.4102 14.3351 45.2682L 12.6262 44.229ZM 8.67558 51.4153C 8.07092 52.6391 7.49211 53.8779 6.93986 55.1312L 8.77005 55.9376C 9.31048 54.7112 9.87691 53.4988 10.4687 52.3012L 8.67558 51.4153ZM 5.36877 58.9197C 4.87393 60.1912 4.40596 61.4761 3.96555 62.7738L 5.85945 63.4166C 6.29041 62.1467 6.74836 60.8893 7.2326 59.6451L 5.36877 58.9197ZM 2.73303 66.6861C 2.35194 67.9956 1.99858 69.3169 1.6736 70.6493L 3.61665 71.1232C 3.93466 69.8194 4.28045 68.5264 4.65337 67.245L 2.73303 66.6861ZM 0.78918 74.6559C 0.524578 75.9934 0.288354 77.3411 0.0811588 78.6983L 2.05825 79.0001C 2.26103 77.6718 2.49221 76.3529 2.75116 75.044L 0.78918 74.6559ZM -0.448938 82.7632C -0.595484 84.1162 -0.713315 85.4777 -0.801814 86.8472L 1.19402 86.9762C 1.28066 85.6356 1.396 84.3028 1.53943 82.9786L -0.448938 82.7632ZM -0.97793 90.9428C -0.992619 91.6268 -1 92.3125 -1 93L 1 93C 1 92.3269 1.00723 91.6554 1.02161 90.9858L -0.97793 90.9428ZM -1 93C -1 93.6874 -0.992619 94.3732 -0.977931 95.0571L 1.02161 95.0142C 1.00723 94.3446 1 93.6731 1 93L -1 93ZM -0.801815 99.1528C -0.713316 100.522 -0.595485 101.884 -0.448939 103.237L 1.53943 103.021C 1.396 101.697 1.28065 100.364 1.19402 99.0238L -0.801815 99.1528ZM 0.0811589 107.302C 0.288353 108.659 0.524577 110.007 0.789178 111.344L 2.75115 110.956C 2.49221 109.647 2.26103 108.328 2.05825 107L 0.0811589 107.302ZM 1.6736 115.351C 1.99858 116.683 2.35194 118.004 2.73303 119.314L 4.65337 118.755C 4.28045 117.474 3.93465 116.181 3.61665 114.877L 1.6736 115.351ZM 3.96555 123.226C 4.40596 124.524 4.87393 125.809 5.36877 127.08L 7.2326 126.355C 6.74836 125.111 6.29041 123.853 5.85945 122.583L 3.96555 123.226ZM 6.93986 130.869C 7.49211 132.122 8.07092 133.361 8.67558 134.585L 10.4687 133.699C 9.87691 132.501 9.31048 131.289 8.77004 130.062L 6.93986 130.869ZM 10.5723 138.221C 11.2318 139.421 11.9167 140.604 12.6262 141.771L 14.3351 140.732C 13.6406 139.59 12.9703 138.431 12.3249 137.258L 10.5723 138.221ZM 14.8334 145.229C 15.5947 146.366 16.3802 147.485 17.189 148.587L 18.801 147.403C 18.0093 146.325 17.2405 145.229 16.4954 144.116L 14.8334 145.229ZM 19.6882 151.839C 20.5449 152.905 21.4245 153.952 22.3261 154.979L 23.8292 153.66C 22.9467 152.654 22.0858 151.63 21.2472 150.586L 19.6882 151.839ZM 25.0977 158.002C 26.0433 158.99 27.0102 159.957 27.9977 160.902L 29.3809 159.458C 28.4143 158.532 27.4678 157.586 26.5422 156.619L 25.0977 158.002ZM 31.0207 163.674C 32.048 164.576 33.0951 165.455 34.1612 166.312L 35.414 164.753C 34.3705 163.914 33.3455 163.053 32.34 162.171L 31.0207 163.674ZM 37.4134 168.811C 38.5147 169.62 39.6343 170.405 40.7714 171.167L 41.8841 169.505C 40.7711 168.76 39.6753 167.991 38.5973 167.199L 37.4134 168.811ZM 44.229 173.374C 45.3959 174.083 46.5794 174.768 47.7789 175.428L 48.7425 173.675C 47.5685 173.03 46.4102 172.359 45.2682 171.665L 44.229 173.374ZM 51.4153 177.324C 52.6391 177.929 53.8779 178.508 55.1312 179.06L 55.9376 177.23C 54.7112 176.69 53.4988 176.123 52.3012 175.531L 51.4153 177.324ZM 58.9197 180.631C 60.1912 181.126 61.4761 181.594 62.7738 182.034L 63.4166 180.141C 62.1467 179.71 60.8893 179.252 59.6451 178.767L 58.9197 180.631ZM 66.6861 183.267C 67.9956 183.648 69.3169 184.001 70.6493 184.326L 71.1232 182.383C 69.8194 182.065 68.5264 181.72 67.245 181.347L 66.6861 183.267ZM 74.6559 185.211C 75.9934 185.475 77.3411 185.712 78.6983 185.919L 79.0001 183.942C 77.6718 183.739 76.3529 183.508 75.044 183.249L 74.6559 185.211ZM 82.7632 186.449C 84.1162 186.595 85.4777 186.713 86.8472 186.802L 86.9762 184.806C 85.6356 184.719 84.3028 184.604 82.9786 184.461L 82.7632 186.449ZM 90.9428 186.978C 91.6268 186.993 92.3125 187 93 187L 93 185C 92.3269 185 91.6554 184.993 90.9858 184.978L 90.9428 186.978ZM 93 187C 93.6874 187 94.3732 186.993 95.0571 186.978L 95.0142 184.978C 94.3446 184.993 93.6731 185 93 185L 93 187ZM 99.1528 186.802C 100.522 186.713 101.884 186.595 103.237 186.449L 103.021 184.461C 101.697 184.604 100.364 184.719 99.0238 184.806L 99.1528 186.802ZM 107.302 185.919C 108.659 185.712 110.007 185.475 111.344 185.211L 110.956 183.249C 109.647 183.508 108.328 183.739 107 183.942L 107.302 185.919ZM 115.351 184.326C 116.683 184.001 118.004 183.648 119.314 183.267L 118.755 181.347C 117.474 181.72 116.181 182.065 114.877 182.383L 115.351 184.326ZM 123.226 182.034C 124.524 181.594 125.809 181.126 127.08 180.631L 126.355 178.767C 125.111 179.252 123.853 179.71 122.583 180.141L 123.226 182.034ZM 130.869 179.06C 132.122 178.508 133.361 177.929 134.585 177.324L 133.699 175.531C 132.501 176.123 131.289 176.69 130.062 177.23L 130.869 179.06ZM 138.221 175.428C 139.421 174.768 140.604 174.083 141.771 173.374L 140.732 171.665C 139.59 172.359 138.431 173.03 137.258 173.675L 138.221 175.428ZM 145.229 171.167C 146.366 170.405 147.485 169.62 148.587 168.811L 147.403 167.199C 146.325 167.991 145.229 168.76 144.116 169.505L 145.229 171.167ZM 151.839 166.312C 152.905 165.455 153.952 164.576 154.979 163.674L 153.66 162.171C 152.654 163.053 151.63 163.914 150.586 164.753L 151.839 166.312ZM 158.002 160.902C 158.99 159.957 159.957 158.99 160.902 158.002L 159.458 156.619C 158.532 157.586 157.586 158.532 156.619 159.458L 158.002 160.902ZM 163.674 154.979C 164.576 153.952 165.455 152.905 166.312 151.839L 164.753 150.586C 163.914 151.63 163.053 152.654 162.171 153.66L 163.674 154.979ZM 168.811 148.587C 169.62 147.485 170.405 146.366 171.167 145.229L 169.505 144.116C 168.76 145.229 167.991 146.325 167.199 147.403L 168.811 148.587ZM 173.374 141.771C 174.083 140.604 174.768 139.421 175.428 138.221L 173.675 137.258C 173.03 138.431 172.359 139.59 171.665 140.732L 173.374 141.771ZM 177.324 134.585C 177.929 133.361 178.508 132.122 179.06 130.869L 177.23 130.062C 176.69 131.289 176.123 132.501 175.531 133.699L 177.324 134.585ZM 180.631 127.08C 181.126 125.809 181.594 124.524 182.034 123.226L 180.141 122.583C 179.71 123.853 179.252 125.111 178.767 126.355L 180.631 127.08ZM 183.267 119.314C 183.648 118.004 184.001 116.683 184.326 115.351L 182.383 114.877C 182.065 116.181 181.72 117.474 181.347 118.755L 183.267 119.314ZM 185.211 111.344C 185.475 110.007 185.712 108.659 185.919 107.302L 183.942 107C 183.739 108.328 183.508 109.647 183.249 110.956L 185.211 111.344ZM 186.449 103.237C 186.595 101.884 186.713 100.522 186.802 99.1528L 184.806 99.0238C 184.719 100.364 184.604 101.697 184.461 103.021L 186.449 103.237ZM 186.978 95.0572C 186.993 94.3732 187 93.6875 187 93L 185 93C 185 93.6731 184.993 94.3446 184.978 95.0142L 186.978 95.0572Z"/>
    </defs>
</svg>
